<svg width="272" height="58" viewBox="0 0 272 58" fill="none" xmlns="http://www.w3.org/2000/svg">
<path d="M73.6414 23.288C71.9294 23.288 70.3774 22.92 68.9854 22.184C67.6094 21.432 66.5214 20.4 65.7214 19.088C64.9374 17.76 64.5454 16.264 64.5454 14.6C64.5454 12.936 64.9374 11.448 65.7214 10.136C66.5214 8.808 67.6094 7.776 68.9854 7.04C70.3774 6.288 71.9374 5.912 73.6654 5.912C75.1214 5.912 76.4334 6.168 77.6014 6.68C78.7854 7.192 79.7774 7.928 80.5774 8.888L78.0814 11.192C76.9454 9.88 75.5374 9.224 73.8574 9.224C72.8174 9.224 71.8894 9.456 71.0734 9.92C70.2574 10.368 69.6174 11 69.1534 11.816C68.7054 12.632 68.4814 13.56 68.4814 14.6C68.4814 15.64 68.7054 16.568 69.1534 17.384C69.6174 18.2 70.2574 18.84 71.0734 19.304C71.8894 19.752 72.8174 19.976 73.8574 19.976C75.5374 19.976 76.9454 19.312 78.0814 17.984L80.5774 20.288C79.7774 21.264 78.7854 22.008 77.6014 22.52C76.4174 23.032 75.0974 23.288 73.6414 23.288ZM90.9874 23.288C89.2434 23.288 87.6674 22.912 86.2594 22.16C84.8674 21.408 83.7714 20.376 82.9714 19.064C82.1874 17.736 81.7954 16.248 81.7954 14.6C81.7954 12.952 82.1874 11.472 82.9714 10.16C83.7714 8.832 84.8674 7.792 86.2594 7.04C87.6674 6.288 89.2434 5.912 90.9874 5.912C92.7314 5.912 94.2994 6.288 95.6914 7.04C97.0834 7.792 98.1794 8.832 98.9794 10.16C99.7794 11.472 100.179 12.952 100.179 14.6C100.179 16.248 99.7794 17.736 98.9794 19.064C98.1794 20.376 97.0834 21.408 95.6914 22.16C94.2994 22.912 92.7314 23.288 90.9874 23.288ZM90.9874 19.976C91.9794 19.976 92.8754 19.752 93.6754 19.304C94.4754 18.84 95.0994 18.2 95.5474 17.384C96.0114 16.568 96.2434 15.64 96.2434 14.6C96.2434 13.56 96.0114 12.632 95.5474 11.816C95.0994 11 94.4754 10.368 93.6754 9.92C92.8754 9.456 91.9794 9.224 90.9874 9.224C89.9954 9.224 89.0994 9.456 88.2994 9.92C87.4994 10.368 86.8674 11 86.4034 11.816C85.9554 12.632 85.7314 13.56 85.7314 14.6C85.7314 15.64 85.9554 16.568 86.4034 17.384C86.8674 18.2 87.4994 18.84 88.2994 19.304C89.0994 19.752 89.9954 19.976 90.9874 19.976ZM113.931 19.4H106.131L104.643 23H100.659L108.147 6.2H111.987L119.499 23H115.419L113.931 19.4ZM112.707 16.448L110.043 10.016L107.379 16.448H112.707ZM129.048 23.288C127.336 23.288 125.784 22.92 124.392 22.184C123.016 21.432 121.928 20.4 121.128 19.088C120.344 17.76 119.952 16.264 119.952 14.6C119.952 12.936 120.344 11.448 121.128 10.136C121.928 8.808 123.016 7.776 124.392 7.04C125.784 6.288 127.344 5.912 129.072 5.912C130.528 5.912 131.84 6.168 133.008 6.68C134.192 7.192 135.184 7.928 135.984 8.888L133.488 11.192C132.352 9.88 130.944 9.224 129.264 9.224C128.224 9.224 127.296 9.456 126.48 9.92C125.664 10.368 125.024 11 124.56 11.816C124.112 12.632 123.888 13.56 123.888 14.6C123.888 15.64 124.112 16.568 124.56 17.384C125.024 18.2 125.664 18.84 126.48 19.304C127.296 19.752 128.224 19.976 129.264 19.976C130.944 19.976 132.352 19.312 133.488 17.984L135.984 20.288C135.184 21.264 134.192 22.008 133.008 22.52C131.824 23.032 130.504 23.288 129.048 23.288ZM154.017 6.2V23H150.129V16.112H142.497V23H138.609V6.2H142.497V12.824H150.129V6.2H154.017ZM16.7889 43.264C17.7489 43.568 18.5009 44.08 19.0449 44.8C19.5889 45.504 19.8609 46.376 19.8609 47.416C19.8609 48.888 19.2849 50.024 18.1329 50.824C16.9969 51.608 15.3329 52 13.1409 52H4.45294V35.2H12.6609C14.7089 35.2 16.2769 35.592 17.3649 36.376C18.4689 37.16 19.0209 38.224 19.0209 39.568C19.0209 40.384 18.8209 41.112 18.4209 41.752C18.0369 42.392 17.4929 42.896 16.7889 43.264ZM8.31694 38.128V42.088H12.1809C13.1409 42.088 13.8689 41.92 14.3649 41.584C14.8609 41.248 15.1089 40.752 15.1089 40.096C15.1089 39.44 14.8609 38.952 14.3649 38.632C13.8689 38.296 13.1409 38.128 12.1809 38.128H8.31694ZM12.8529 49.072C13.8769 49.072 14.6449 48.904 15.1569 48.568C15.6849 48.232 15.9489 47.712 15.9489 47.008C15.9489 45.616 14.9169 44.92 12.8529 44.92H8.31694V49.072H12.8529ZM33.8685 48.4H26.0685L24.5805 52H20.5965L28.0845 35.2H31.9245L39.4365 52H35.3565L33.8685 48.4ZM32.6445 45.448L29.9805 39.016L27.3165 45.448H32.6445ZM48.9851 52.288C47.2731 52.288 45.7211 51.92 44.3291 51.184C42.9531 50.432 41.8651 49.4 41.0651 48.088C40.2811 46.76 39.8891 45.264 39.8891 43.6C39.8891 41.936 40.2811 40.448 41.0651 39.136C41.8651 37.808 42.9531 36.776 44.3291 36.04C45.7211 35.288 47.2811 34.912 49.0091 34.912C50.4651 34.912 51.7771 35.168 52.9451 35.68C54.1291 36.192 55.1211 36.928 55.9211 37.888L53.4251 40.192C52.2891 38.88 50.8811 38.224 49.2011 38.224C48.1611 38.224 47.2331 38.456 46.4171 38.92C45.6011 39.368 44.9611 40 44.4971 40.816C44.0491 41.632 43.8251 42.56 43.8251 43.6C43.8251 44.64 44.0491 45.568 44.4971 46.384C44.9611 47.2 45.6011 47.84 46.4171 48.304C47.2331 48.752 48.1611 48.976 49.2011 48.976C50.8811 48.976 52.2891 48.312 53.4251 46.984L55.9211 49.288C55.1211 50.264 54.1291 51.008 52.9451 51.52C51.7611 52.032 50.4411 52.288 48.9851 52.288ZM73.9547 35.2V52H70.0667V45.112H62.4347V52H58.5467V35.2H62.4347V41.824H70.0667V35.2H73.9547ZM93.2175 52L93.1935 41.92L88.2495 50.224H86.4975L81.5775 42.136V52H77.9295V35.2H81.1455L87.4335 45.64L93.6255 35.2H96.8175L96.8655 52H93.2175ZM111.915 48.4H104.115L102.627 52H98.6434L106.131 35.2H109.971L117.483 52H113.403L111.915 48.4ZM110.691 45.448L108.027 39.016L105.363 45.448H110.691ZM134.634 35.2V52H131.442L123.066 41.8V52H119.226V35.2H122.442L130.794 45.4V35.2H134.634ZM154.017 35.2V52H150.825L142.449 41.8V52H138.609V35.2H141.825L150.177 45.4V35.2H154.017Z" fill="white"/>
<line x1="161.5" y1="58" x2="161.5" stroke="white"/>
<path d="M177.786 7.7V17.5H176.764V12.978H170.632V17.5H169.596V7.7H170.632V12.068H176.764V7.7H177.786ZM187.131 14.882H181.671L180.495 17.5H179.417L183.897 7.7H184.919L189.399 17.5H188.307L187.131 14.882ZM186.753 14.042L184.401 8.778L182.049 14.042H186.753ZM199.21 7.7V17.5H198.356L192.056 9.548V17.5H191.02V7.7H191.874L198.188 15.652V7.7H199.21ZM202.409 7.7H206.399C207.435 7.7 208.349 7.91 209.143 8.33C209.936 8.74067 210.552 9.31933 210.991 10.066C211.429 10.8033 211.649 11.648 211.649 12.6C211.649 13.552 211.429 14.4013 210.991 15.148C210.552 15.8853 209.936 16.464 209.143 16.884C208.349 17.2947 207.435 17.5 206.399 17.5H202.409V7.7ZM206.343 16.604C207.201 16.604 207.953 16.436 208.597 16.1C209.241 15.7547 209.74 15.2833 210.095 14.686C210.449 14.0793 210.627 13.384 210.627 12.6C210.627 11.816 210.449 11.1253 210.095 10.528C209.74 9.92133 209.241 9.45 208.597 9.114C207.953 8.76867 207.201 8.596 206.343 8.596H203.445V16.604H206.343ZM216.677 17.584C215.949 17.584 215.249 17.4673 214.577 17.234C213.914 17.0007 213.401 16.6927 213.037 16.31L213.443 15.512C213.798 15.8667 214.269 16.156 214.857 16.38C215.445 16.5947 216.052 16.702 216.677 16.702C217.554 16.702 218.212 16.5433 218.651 16.226C219.09 15.8993 219.309 15.4793 219.309 14.966C219.309 14.574 219.188 14.2613 218.945 14.028C218.712 13.7947 218.422 13.6173 218.077 13.496C217.732 13.3653 217.251 13.2253 216.635 13.076C215.898 12.8893 215.31 12.712 214.871 12.544C214.432 12.3667 214.054 12.1007 213.737 11.746C213.429 11.3913 213.275 10.9107 213.275 10.304C213.275 9.80933 213.406 9.36133 213.667 8.96C213.928 8.54933 214.33 8.22267 214.871 7.98C215.412 7.73733 216.084 7.616 216.887 7.616C217.447 7.616 217.993 7.69533 218.525 7.854C219.066 8.00333 219.533 8.21333 219.925 8.484L219.575 9.31C219.164 9.03933 218.726 8.83867 218.259 8.708C217.792 8.568 217.335 8.498 216.887 8.498C216.028 8.498 215.38 8.666 214.941 9.002C214.512 9.32867 214.297 9.75333 214.297 10.276C214.297 10.668 214.414 10.9853 214.647 11.228C214.89 11.4613 215.188 11.6433 215.543 11.774C215.907 11.8953 216.392 12.0307 216.999 12.18C217.718 12.3573 218.296 12.5347 218.735 12.712C219.183 12.88 219.561 13.1413 219.869 13.496C220.177 13.8413 220.331 14.3127 220.331 14.91C220.331 15.4047 220.196 15.8573 219.925 16.268C219.664 16.6693 219.258 16.9913 218.707 17.234C218.156 17.4673 217.48 17.584 216.677 17.584ZM224.355 8.596H220.911V7.7H228.835V8.596H225.391V17.5H224.355V8.596ZM236.144 14.882H230.684L229.508 17.5H228.43L232.91 7.7H233.932L238.412 17.5H237.32L236.144 14.882ZM235.766 14.042L233.414 8.778L231.062 14.042H235.766ZM248.224 7.7V17.5H247.37L241.07 9.548V17.5H240.034V7.7H240.888L247.202 15.652V7.7H248.224ZM251.422 7.7H255.412C256.448 7.7 257.363 7.91 258.156 8.33C258.95 8.74067 259.566 9.31933 260.004 10.066C260.443 10.8033 260.662 11.648 260.662 12.6C260.662 13.552 260.443 14.4013 260.004 15.148C259.566 15.8853 258.95 16.464 258.156 16.884C257.363 17.2947 256.448 17.5 255.412 17.5H251.422V7.7ZM255.356 16.604C256.215 16.604 256.966 16.436 257.61 16.1C258.254 15.7547 258.754 15.2833 259.108 14.686C259.463 14.0793 259.64 13.384 259.64 12.6C259.64 11.816 259.463 11.1253 259.108 10.528C258.754 9.92133 258.254 9.45 257.61 9.114C256.966 8.76867 256.215 8.596 255.356 8.596H252.458V16.604H255.356ZM265.691 17.584C264.963 17.584 264.263 17.4673 263.591 17.234C262.928 17.0007 262.415 16.6927 262.051 16.31L262.457 15.512C262.811 15.8667 263.283 16.156 263.871 16.38C264.459 16.5947 265.065 16.702 265.691 16.702C266.568 16.702 267.226 16.5433 267.665 16.226C268.103 15.8993 268.323 15.4793 268.323 14.966C268.323 14.574 268.201 14.2613 267.959 14.028C267.725 13.7947 267.436 13.6173 267.091 13.496C266.745 13.3653 266.265 13.2253 265.649 13.076C264.911 12.8893 264.323 12.712 263.885 12.544C263.446 12.3667 263.068 12.1007 262.751 11.746C262.443 11.3913 262.289 10.9107 262.289 10.304C262.289 9.80933 262.419 9.36133 262.681 8.96C262.942 8.54933 263.343 8.22267 263.885 7.98C264.426 7.73733 265.098 7.616 265.901 7.616C266.461 7.616 267.007 7.69533 267.539 7.854C268.08 8.00333 268.547 8.21333 268.939 8.484L268.589 9.31C268.178 9.03933 267.739 8.83867 267.273 8.708C266.806 8.568 266.349 8.498 265.901 8.498C265.042 8.498 264.393 8.666 263.955 9.002C263.525 9.32867 263.311 9.75333 263.311 10.276C263.311 10.668 263.427 10.9853 263.661 11.228C263.903 11.4613 264.202 11.6433 264.557 11.774C264.921 11.8953 265.406 12.0307 266.013 12.18C266.731 12.3573 267.31 12.5347 267.749 12.712C268.197 12.88 268.575 13.1413 268.883 13.496C269.191 13.8413 269.345 14.3127 269.345 14.91C269.345 15.4047 269.209 15.8573 268.939 16.268C268.677 16.6693 268.271 16.9913 267.721 17.234C267.17 17.4673 266.493 17.584 265.691 17.584ZM170.632 25.596V29.446H175.7V30.342H170.632V34.5H169.596V24.7H176.316V25.596H170.632ZM178.455 24.7H179.491V33.604H184.979V34.5H178.455V24.7ZM193.63 33.604V34.5H186.7V24.7H193.42V25.596H187.736V29.082H192.804V29.964H187.736V33.604H193.63ZM202.088 34.5L198.924 30.188L195.774 34.5H194.584L198.308 29.46L194.822 24.7H196.012L198.966 28.704L201.906 24.7H203.026L199.554 29.432L203.292 34.5H202.088ZM204.787 24.7H205.823V34.5H204.787V24.7ZM215.186 29.446C215.83 29.586 216.325 29.866 216.67 30.286C217.025 30.6967 217.202 31.2287 217.202 31.882C217.202 32.722 216.889 33.3707 216.264 33.828C215.648 34.276 214.733 34.5 213.52 34.5H209.012V24.7H213.24C214.332 24.7 215.177 24.9193 215.774 25.358C216.381 25.7967 216.684 26.4173 216.684 27.22C216.684 27.7613 216.549 28.2233 216.278 28.606C216.017 28.9793 215.653 29.2593 215.186 29.446ZM210.048 25.554V29.11H213.17C213.963 29.11 214.575 28.9607 215.004 28.662C215.433 28.354 215.648 27.9107 215.648 27.332C215.648 26.7533 215.433 26.3147 215.004 26.016C214.575 25.708 213.963 25.554 213.17 25.554H210.048ZM213.506 33.646C214.383 33.646 215.046 33.4967 215.494 33.198C215.942 32.8993 216.166 32.4327 216.166 31.798C216.166 30.5753 215.279 29.964 213.506 29.964H210.048V33.646H213.506ZM219.567 24.7H220.603V34.5H219.567V24.7ZM223.791 24.7H224.827V33.604H230.315V34.5H223.791V24.7ZM232.035 24.7H233.071V34.5H232.035V24.7ZM238.164 25.596H234.72V24.7H242.644V25.596H239.2V34.5H238.164V25.596ZM247.591 31.112V34.5H246.569V31.112L242.649 24.7H243.755L247.115 30.202L250.475 24.7H251.511L247.591 31.112ZM173.852 51.584C172.881 51.584 172.004 51.3693 171.22 50.94C170.445 50.5107 169.834 49.918 169.386 49.162C168.947 48.3967 168.728 47.5427 168.728 46.6C168.728 45.6573 168.947 44.808 169.386 44.052C169.834 43.2867 170.45 42.6893 171.234 42.26C172.018 41.8307 172.895 41.616 173.866 41.616C174.594 41.616 175.266 41.7373 175.882 41.98C176.498 42.2227 177.021 42.5773 177.45 43.044L176.792 43.702C176.027 42.9273 175.061 42.54 173.894 42.54C173.119 42.54 172.415 42.7173 171.78 43.072C171.145 43.4267 170.646 43.912 170.282 44.528C169.927 45.144 169.75 45.8347 169.75 46.6C169.75 47.3653 169.927 48.056 170.282 48.672C170.646 49.288 171.145 49.7733 171.78 50.128C172.415 50.4827 173.119 50.66 173.894 50.66C175.07 50.66 176.036 50.268 176.792 49.484L177.45 50.142C177.021 50.6087 176.493 50.968 175.868 51.22C175.252 51.4627 174.58 51.584 173.852 51.584ZM185.558 48.882H180.098L178.922 51.5H177.844L182.324 41.7H183.346L187.826 51.5H186.734L185.558 48.882ZM185.18 48.042L182.828 42.778L180.476 48.042H185.18ZM189.448 41.7H190.484V50.604H195.972V51.5H189.448V41.7ZM197.692 41.7H198.728V51.5H197.692V41.7ZM204.618 51.584C203.89 51.584 203.19 51.4673 202.518 51.234C201.856 51.0007 201.342 50.6927 200.978 50.31L201.384 49.512C201.739 49.8667 202.21 50.156 202.798 50.38C203.386 50.5947 203.993 50.702 204.618 50.702C205.496 50.702 206.154 50.5433 206.592 50.226C207.031 49.8993 207.25 49.4793 207.25 48.966C207.25 48.574 207.129 48.2613 206.886 48.028C206.653 47.7947 206.364 47.6173 206.018 47.496C205.673 47.3653 205.192 47.2253 204.576 47.076C203.839 46.8893 203.251 46.712 202.812 46.544C202.374 46.3667 201.996 46.1007 201.678 45.746C201.37 45.3913 201.216 44.9107 201.216 44.304C201.216 43.8093 201.347 43.3613 201.608 42.96C201.87 42.5493 202.271 42.2227 202.812 41.98C203.354 41.7373 204.026 41.616 204.828 41.616C205.388 41.616 205.934 41.6953 206.466 41.854C207.008 42.0033 207.474 42.2133 207.866 42.484L207.516 43.31C207.106 43.0393 206.667 42.8387 206.2 42.708C205.734 42.568 205.276 42.498 204.828 42.498C203.97 42.498 203.321 42.666 202.882 43.002C202.453 43.3287 202.238 43.7533 202.238 44.276C202.238 44.668 202.355 44.9853 202.588 45.228C202.831 45.4613 203.13 45.6433 203.484 45.774C203.848 45.8953 204.334 46.0307 204.94 46.18C205.659 46.3573 206.238 46.5347 206.676 46.712C207.124 46.88 207.502 47.1413 207.81 47.496C208.118 47.8413 208.272 48.3127 208.272 48.91C208.272 49.4047 208.137 49.8573 207.866 50.268C207.605 50.6693 207.199 50.9913 206.648 51.234C206.098 51.4673 205.421 51.584 204.618 51.584ZM212.297 42.596H208.853V41.7H216.777V42.596H213.333V51.5H212.297V42.596ZM226.622 41.7V51.5H225.6V46.978H219.468V51.5H218.432V41.7H219.468V46.068H225.6V41.7H226.622ZM236.751 50.604V51.5H229.821V41.7H236.541V42.596H230.857V46.082H235.925V46.964H230.857V50.604H236.751ZM247.376 41.7V51.5H246.522L240.222 43.548V51.5H239.186V41.7H240.04L246.354 49.652V41.7H247.376ZM250.575 41.7H251.611V51.5H250.575V41.7ZM259.055 51.584C258.084 51.584 257.207 51.3693 256.423 50.94C255.648 50.5107 255.037 49.918 254.589 49.162C254.15 48.3967 253.931 47.5427 253.931 46.6C253.931 45.6573 254.15 44.808 254.589 44.052C255.037 43.2867 255.653 42.6893 256.437 42.26C257.221 41.8307 258.098 41.616 259.069 41.616C259.797 41.616 260.469 41.7373 261.085 41.98C261.701 42.2227 262.224 42.5773 262.653 43.044L261.995 43.702C261.23 42.9273 260.264 42.54 259.097 42.54C258.322 42.54 257.618 42.7173 256.983 43.072C256.348 43.4267 255.849 43.912 255.485 44.528C255.13 45.144 254.953 45.8347 254.953 46.6C254.953 47.3653 255.13 48.056 255.485 48.672C255.849 49.288 256.348 49.7733 256.983 50.128C257.618 50.4827 258.322 50.66 259.097 50.66C260.273 50.66 261.239 50.268 261.995 49.484L262.653 50.142C262.224 50.6087 261.696 50.968 261.071 51.22C260.455 51.4627 259.783 51.584 259.055 51.584ZM267.509 51.584C266.781 51.584 266.081 51.4673 265.409 51.234C264.746 51.0007 264.233 50.6927 263.869 50.31L264.275 49.512C264.63 49.8667 265.101 50.156 265.689 50.38C266.277 50.5947 266.884 50.702 267.509 50.702C268.386 50.702 269.044 50.5433 269.483 50.226C269.922 49.8993 270.141 49.4793 270.141 48.966C270.141 48.574 270.02 48.2613 269.777 48.028C269.544 47.7947 269.254 47.6173 268.909 47.496C268.564 47.3653 268.083 47.2253 267.467 47.076C266.73 46.8893 266.142 46.712 265.703 46.544C265.264 46.3667 264.886 46.1007 264.569 45.746C264.261 45.3913 264.107 44.9107 264.107 44.304C264.107 43.8093 264.238 43.3613 264.499 42.96C264.76 42.5493 265.162 42.2227 265.703 41.98C266.244 41.7373 266.916 41.616 267.719 41.616C268.279 41.616 268.825 41.6953 269.357 41.854C269.898 42.0033 270.365 42.2133 270.757 42.484L270.407 43.31C269.996 43.0393 269.558 42.8387 269.091 42.708C268.624 42.568 268.167 42.498 267.719 42.498C266.86 42.498 266.212 42.666 265.773 43.002C265.344 43.3287 265.129 43.7533 265.129 44.276C265.129 44.668 265.246 44.9853 265.479 45.228C265.722 45.4613 266.02 45.6433 266.375 45.774C266.739 45.8953 267.224 46.0307 267.831 46.18C268.55 46.3573 269.128 46.5347 269.567 46.712C270.015 46.88 270.393 47.1413 270.701 47.496C271.009 47.8413 271.163 48.3127 271.163 48.91C271.163 49.4047 271.028 49.8573 270.757 50.268C270.496 50.6693 270.09 50.9913 269.539 51.234C268.988 51.4673 268.312 51.584 267.509 51.584Z" fill="white"/>
</svg>
