<svg width="189" height="14" viewBox="0 0 189 14" fill="none" xmlns="http://www.w3.org/2000/svg">
<path d="M7.524 13.216C6.24 13.216 5.076 12.94 4.032 12.388C3 11.824 2.184 11.05 1.584 10.066C0.996 9.07 0.702 7.948 0.702 6.7C0.702 5.452 0.996 4.336 1.584 3.352C2.184 2.356 3 1.582 4.032 1.03C5.076 0.466 6.246 0.184 7.542 0.184C8.634 0.184 9.618 0.376 10.494 0.76C11.382 1.144 12.126 1.696 12.726 2.416L10.854 4.144C10.002 3.16 8.946 2.668 7.686 2.668C6.906 2.668 6.21 2.842 5.598 3.19C4.986 3.526 4.506 4 4.158 4.612C3.822 5.224 3.654 5.92 3.654 6.7C3.654 7.48 3.822 8.176 4.158 8.788C4.506 9.4 4.986 9.88 5.598 10.228C6.21 10.564 6.906 10.732 7.686 10.732C8.946 10.732 10.002 10.234 10.854 9.238L12.726 10.966C12.126 11.698 11.382 12.256 10.494 12.64C9.606 13.024 8.616 13.216 7.524 13.216ZM20.5335 13.216C19.2255 13.216 18.0435 12.934 16.9875 12.37C15.9435 11.806 15.1215 11.032 14.5215 10.048C13.9335 9.052 13.6395 7.936 13.6395 6.7C13.6395 5.464 13.9335 4.354 14.5215 3.37C15.1215 2.374 15.9435 1.594 16.9875 1.03C18.0435 0.466 19.2255 0.184 20.5335 0.184C21.8415 0.184 23.0175 0.466 24.0615 1.03C25.1055 1.594 25.9275 2.374 26.5275 3.37C27.1275 4.354 27.4275 5.464 27.4275 6.7C27.4275 7.936 27.1275 9.052 26.5275 10.048C25.9275 11.032 25.1055 11.806 24.0615 12.37C23.0175 12.934 21.8415 13.216 20.5335 13.216ZM20.5335 10.732C21.2775 10.732 21.9495 10.564 22.5495 10.228C23.1495 9.88 23.6175 9.4 23.9535 8.788C24.3015 8.176 24.4755 7.48 24.4755 6.7C24.4755 5.92 24.3015 5.224 23.9535 4.612C23.6175 4 23.1495 3.526 22.5495 3.19C21.9495 2.842 21.2775 2.668 20.5335 2.668C19.7895 2.668 19.1175 2.842 18.5175 3.19C17.9175 3.526 17.4435 4 17.0955 4.612C16.7595 5.224 16.5915 5.92 16.5915 6.7C16.5915 7.48 16.7595 8.176 17.0955 8.788C17.4435 9.4 17.9175 9.88 18.5175 10.228C19.1175 10.564 19.7895 10.732 20.5335 10.732ZM37.7412 10.3H31.8912L30.7752 13H27.7872L33.4032 0.399999H36.2832L41.9172 13H38.8572L37.7412 10.3ZM36.8232 8.086L34.8252 3.262L32.8272 8.086H36.8232ZM49.0787 13.216C47.7947 13.216 46.6307 12.94 45.5867 12.388C44.5547 11.824 43.7387 11.05 43.1387 10.066C42.5507 9.07 42.2567 7.948 42.2567 6.7C42.2567 5.452 42.5507 4.336 43.1387 3.352C43.7387 2.356 44.5547 1.582 45.5867 1.03C46.6307 0.466 47.8007 0.184 49.0967 0.184C50.1887 0.184 51.1727 0.376 52.0487 0.76C52.9367 1.144 53.6807 1.696 54.2807 2.416L52.4087 4.144C51.5567 3.16 50.5007 2.668 49.2407 2.668C48.4607 2.668 47.7647 2.842 47.1527 3.19C46.5407 3.526 46.0607 4 45.7127 4.612C45.3767 5.224 45.2087 5.92 45.2087 6.7C45.2087 7.48 45.3767 8.176 45.7127 8.788C46.0607 9.4 46.5407 9.88 47.1527 10.228C47.7647 10.564 48.4607 10.732 49.2407 10.732C50.5007 10.732 51.5567 10.234 52.4087 9.238L54.2807 10.966C53.6807 11.698 52.9367 12.256 52.0487 12.64C51.1607 13.024 50.1707 13.216 49.0787 13.216ZM67.8059 0.399999V13H64.8899V7.834H59.1659V13H56.2499V0.399999H59.1659V5.368H64.8899V0.399999H67.8059ZM85.1366 6.448C85.8566 6.676 86.4206 7.06 86.8286 7.6C87.2366 8.128 87.4406 8.782 87.4406 9.562C87.4406 10.666 87.0086 11.518 86.1446 12.118C85.2926 12.706 84.0446 13 82.4006 13H75.8846V0.399999H82.0406C83.5766 0.399999 84.7526 0.693999 85.5686 1.282C86.3966 1.87 86.8106 2.668 86.8106 3.676C86.8106 4.288 86.6606 4.834 86.3606 5.314C86.0726 5.794 85.6646 6.172 85.1366 6.448ZM78.7826 2.596V5.566H81.6806C82.4006 5.566 82.9466 5.44 83.3186 5.188C83.6906 4.936 83.8766 4.564 83.8766 4.072C83.8766 3.58 83.6906 3.214 83.3186 2.974C82.9466 2.722 82.4006 2.596 81.6806 2.596H78.7826ZM82.1846 10.804C82.9526 10.804 83.5286 10.678 83.9126 10.426C84.3086 10.174 84.5066 9.784 84.5066 9.256C84.5066 8.212 83.7326 7.69 82.1846 7.69H78.7826V10.804H82.1846ZM97.9463 10.3H92.0963L90.9803 13H87.9923L93.6083 0.399999H96.4883L102.122 13H99.0623L97.9463 10.3ZM97.0283 8.086L95.0303 3.262L93.0323 8.086H97.0283ZM109.284 13.216C108 13.216 106.836 12.94 105.792 12.388C104.76 11.824 103.944 11.05 103.344 10.066C102.756 9.07 102.462 7.948 102.462 6.7C102.462 5.452 102.756 4.336 103.344 3.352C103.944 2.356 104.76 1.582 105.792 1.03C106.836 0.466 108.006 0.184 109.302 0.184C110.394 0.184 111.378 0.376 112.254 0.76C113.142 1.144 113.886 1.696 114.486 2.416L112.614 4.144C111.762 3.16 110.706 2.668 109.446 2.668C108.666 2.668 107.97 2.842 107.358 3.19C106.746 3.526 106.266 4 105.918 4.612C105.582 5.224 105.414 5.92 105.414 6.7C105.414 7.48 105.582 8.176 105.918 8.788C106.266 9.4 106.746 9.88 107.358 10.228C107.97 10.564 108.666 10.732 109.446 10.732C110.706 10.732 111.762 10.234 112.614 9.238L114.486 10.966C113.886 11.698 113.142 12.256 112.254 12.64C111.366 13.024 110.376 13.216 109.284 13.216ZM128.011 0.399999V13H125.095V7.834H119.371V13H116.455V0.399999H119.371V5.368H125.095V0.399999H128.011ZM142.458 13L142.44 5.44L138.732 11.668H137.418L133.728 5.602V13H130.992V0.399999H133.404L138.12 8.23L142.764 0.399999H145.158L145.194 13H142.458ZM156.481 10.3H150.631L149.515 13H146.527L152.143 0.399999H155.023L160.657 13H157.597L156.481 10.3ZM155.563 8.086L153.565 3.262L151.567 8.086H155.563ZM173.521 0.399999V13H171.127L164.845 5.35V13H161.965V0.399999H164.377L170.641 8.05V0.399999H173.521ZM188.058 0.399999V13H185.664L179.382 5.35V13H176.502V0.399999H178.914L185.178 8.05V0.399999H188.058Z" fill="white"/>
</svg>
