<svg width="58" height="58" viewBox="0 0 58 58" fill="none" xmlns="http://www.w3.org/2000/svg">
<g opacity="0.65" clip-path="url(#clip0_159_192)">
<path opacity="0.964" fill-rule="evenodd" clip-rule="evenodd" d="M27.3965 -0.0566406C27.7611 -0.0566406 28.1257 -0.0566406 28.4903 -0.0566406C28.669 0.104324 28.833 0.286615 28.9824 0.490234C29.0554 1.87565 29.0554 3.26106 28.9824 4.64648C28.5725 5.30735 28.0074 5.47141 27.2871 5.13867C27.1177 5.00589 26.9902 4.84183 26.9043 4.64648C26.8314 3.26106 26.8314 1.87565 26.9043 0.490234C27.0537 0.286615 27.2178 0.104324 27.3965 -0.0566406Z" fill="white" stroke="white" stroke-width="1.4"/>
<path opacity="0.919" fill-rule="evenodd" clip-rule="evenodd" d="M41.2871 3.44336C42.3604 3.58636 42.7432 4.16969 42.4356 5.19336C41.8887 6.14128 41.3418 7.08919 40.7949 8.03711C40.2046 8.5726 39.5848 8.60906 38.9356 8.14648C38.6232 7.69379 38.5867 7.21983 38.8262 6.72461C39.437 5.75828 40.0204 4.77391 40.5762 3.77148C40.8131 3.63679 41.0501 3.52741 41.2871 3.44336Z" fill="white" stroke="white" stroke-width="1.4"/>
<path opacity="0.924" fill-rule="evenodd" clip-rule="evenodd" d="M13.9434 3.55275C14.3098 3.53471 14.6743 3.55294 15.0371 3.60744C15.1465 3.69858 15.2559 3.78974 15.3653 3.88088C15.9579 4.81071 16.523 5.75863 17.0606 6.72463C17.4179 8.03427 16.9257 8.59938 15.584 8.41994C15.3887 8.33414 15.2246 8.20653 15.0918 8.03713C14.5449 7.08921 13.9981 6.1413 13.4512 5.19338C13.3782 4.8288 13.3782 4.46421 13.4512 4.09963C13.6379 3.93146 13.802 3.74918 13.9434 3.55275Z" fill="white" stroke="white" stroke-width="1.4"/>
<path opacity="0.973" fill-rule="evenodd" clip-rule="evenodd" d="M27.7246 8.80276C28.2764 8.785 28.6957 9.00375 28.9824 9.45901C29.0007 15.402 29.0554 21.3448 29.1465 27.2871C31.5163 28.6543 33.8861 30.0215 36.2559 31.3887C36.5687 31.7913 36.6598 32.2471 36.5293 32.7559C36.2101 33.3602 35.7179 33.5607 35.0528 33.3574C32.5007 31.8991 29.9486 30.4407 27.3965 28.9824C27.196 28.8548 27.032 28.6907 26.9043 28.4903C26.8314 22.1465 26.8314 15.8028 26.9043 9.45901C27.091 9.121 27.3645 8.90225 27.7246 8.80276Z" fill="white" stroke="white" stroke-width="1.4"/>
<path opacity="0.919" fill-rule="evenodd" clip-rule="evenodd" d="M4.0996 13.3965C4.466 13.3785 4.83058 13.3967 5.19335 13.4512C6.14127 13.9981 7.08918 14.5449 8.0371 15.0918C8.54878 15.6503 8.60347 16.2518 8.20117 16.8965C7.7438 17.2552 7.25162 17.3099 6.7246 17.0606C5.75828 16.4497 4.7739 15.8663 3.77148 15.3106C3.29736 14.5658 3.40673 13.9278 4.0996 13.3965Z" fill="white" stroke="white" stroke-width="1.4"/>
<path opacity="0.92" fill-rule="evenodd" clip-rule="evenodd" d="M50.6934 13.3965C52.1832 13.2439 52.6754 13.8636 52.1699 15.2559C51.0142 16.0433 49.7929 16.6995 48.5059 17.2246C47.4563 16.9916 47.1464 16.3717 47.5762 15.3653C48.6051 14.6808 49.6441 14.0245 50.6934 13.3965Z" fill="white" stroke="white" stroke-width="1.4"/>
<path opacity="0.964" fill-rule="evenodd" clip-rule="evenodd" d="M-0.0566406 28.4903C-0.0566406 28.1257 -0.0566406 27.7611 -0.0566406 27.3965C0.104324 27.2178 0.286615 27.0537 0.490234 26.9043C1.87565 26.8314 3.26106 26.8314 4.64648 26.9043C5.30735 27.3143 5.47141 27.8794 5.13867 28.5996C5.00589 28.7691 4.84183 28.8966 4.64648 28.9824C3.26106 29.0554 1.87565 29.0554 0.490234 28.9824C0.286615 28.833 0.104324 28.669 -0.0566406 28.4903Z" fill="white" stroke="white" stroke-width="1.4"/>
<path opacity="0.964" fill-rule="evenodd" clip-rule="evenodd" d="M55.9434 27.3965C55.9434 27.7611 55.9434 28.1257 55.9434 28.4903C55.7824 28.669 55.6002 28.833 55.3965 28.9824C54.011 29.0554 52.6257 29.0554 51.2402 28.9824C50.5794 28.5725 50.4153 28.0074 50.7481 27.2871C50.8808 27.1177 51.0449 26.9902 51.2402 26.9043C52.6257 26.8314 54.011 26.8314 55.3965 26.9043C55.6002 27.0537 55.7824 27.2178 55.9434 27.3965Z" fill="white" stroke="white" stroke-width="1.4"/>
<path opacity="0.923" fill-rule="evenodd" clip-rule="evenodd" d="M7.05273 38.6621C8.28763 38.725 8.70691 39.3448 8.31055 40.5215C7.30038 41.2029 6.26132 41.8409 5.19336 42.4355C4.23735 42.6988 3.654 42.3525 3.44336 41.3965C3.50365 41.1169 3.61302 40.8618 3.77148 40.6309C4.84312 39.9208 5.93687 39.2645 7.05273 38.6621Z" fill="white" stroke="white" stroke-width="1.4"/>
<path opacity="0.923" fill-rule="evenodd" clip-rule="evenodd" d="M48.2871 38.662C48.5902 38.6534 48.8818 38.7081 49.1621 38.8261C50.0957 39.413 51.0437 39.978 52.0059 40.5214C52.5579 41.2122 52.4849 41.8502 51.7871 42.4355C51.4226 42.5084 51.0579 42.5084 50.6934 42.4355C49.7454 41.8886 48.7976 41.3417 47.8496 40.7948C47.3078 40.2123 47.2714 39.5925 47.7402 38.9355C47.9388 38.8527 48.121 38.7615 48.2871 38.662Z" fill="white" stroke="white" stroke-width="1.4"/>
<path opacity="0.923" fill-rule="evenodd" clip-rule="evenodd" d="M15.584 47.4121C16.7058 47.25 17.2345 47.7239 17.17 48.834C16.6097 50.0836 15.8987 51.232 15.0372 52.2793C13.7578 52.5313 13.2292 52.0027 13.4512 50.6933C13.9981 49.7454 14.545 48.7975 15.0919 47.8496C15.2447 47.6779 15.4087 47.532 15.584 47.4121Z" fill="white" stroke="white" stroke-width="1.4"/>
<path opacity="0.923" fill-rule="evenodd" clip-rule="evenodd" d="M39.4277 47.4121C39.9688 47.3167 40.4245 47.4625 40.7949 47.8496C41.3054 48.7246 41.8157 49.5996 42.3262 50.4746C42.7908 51.5174 42.4808 52.1736 41.3965 52.4433C41.1169 52.3831 40.8618 52.2737 40.6309 52.1152C39.8452 50.9995 39.189 49.8145 38.6621 48.5605C38.7287 48.0405 38.9839 47.6577 39.4277 47.4121Z" fill="white" stroke="white" stroke-width="1.4"/>
<path opacity="0.964" fill-rule="evenodd" clip-rule="evenodd" d="M28.4903 55.9434C28.1257 55.9434 27.7611 55.9434 27.3965 55.9434C27.2178 55.7824 27.0537 55.6002 26.9043 55.3965C26.8314 54.011 26.8314 52.6257 26.9043 51.2402C27.3143 50.5794 27.8794 50.4153 28.5996 50.7481C28.7691 50.8808 28.8966 51.0449 28.9824 51.2402C29.0554 52.6257 29.0554 54.011 28.9824 55.3965C28.833 55.6002 28.669 55.7824 28.4903 55.9434Z" fill="white" stroke="white" stroke-width="1.4"/>
</g>
<defs>
<clipPath id="clip0_159_192">
<rect width="58" height="58" fill="white"/>
</clipPath>
</defs>
</svg>
