<svg width="58" height="58" viewBox="0 0 58 58" fill="none" xmlns="http://www.w3.org/2000/svg">
<g opacity="0.65">
<path opacity="0.932" fill-rule="evenodd" clip-rule="evenodd" d="M26.4511 0.849594C27.4336 0.830741 28.4154 0.849622 29.3964 0.906234C29.5286 1.0384 29.6607 1.17055 29.7929 1.30272C29.8685 3.41731 29.8685 5.53188 29.7929 7.64647C29.6607 7.77863 29.5286 7.91079 29.3964 8.04295C20.4435 8.3713 13.9675 12.5061 9.9687 20.4473C6.89694 28.0448 7.76544 35.1438 12.5742 41.7441C17.8417 48.0104 24.5443 50.5592 32.6816 49.3906C39.6255 47.9133 44.6665 44.0051 47.8046 37.666C49.0726 34.8976 49.7145 31.99 49.7304 28.9433C49.7647 28.6728 49.8592 28.4273 50.0136 28.207C52.1935 28.0211 54.3837 27.9833 56.5839 28.0937C56.7916 28.1504 56.9238 28.2826 56.9804 28.4902C56.9965 38.1811 53.1639 45.9409 45.4824 51.7695C37.1254 57.4242 28.1762 58.557 18.6347 55.1679C9.39173 51.2486 3.63327 44.3951 1.35933 34.6074C-0.24344 25.8011 1.7201 17.9092 7.24995 10.9316C12.3133 5.04849 18.7137 1.68781 26.4511 0.849594ZM26.5644 2.77537C27.0175 2.77537 27.4707 2.77537 27.9238 2.77537C27.9238 3.94594 27.9238 5.11652 27.9238 6.28709C19.8646 6.8208 13.6908 10.4836 9.4023 17.2754C6.23717 22.8395 5.4442 28.7301 7.02339 34.9472C9.83939 43.8805 15.8244 49.3368 24.9785 51.3164C34.177 52.5582 41.6347 49.5562 47.3515 42.3105C50.0186 38.5952 51.4346 34.4416 51.5996 29.8496C52.7701 29.8496 53.9408 29.8496 55.1113 29.8496C54.5209 39.3993 50.1785 46.6682 42.0839 51.6562C33.7552 56.1331 25.3346 56.3218 16.8222 52.2226C7.83584 47.1331 3.11579 39.3923 2.66206 29C3.01954 19.0299 7.39976 11.44 15.8027 6.23045C19.1588 4.32537 22.746 3.17368 26.5644 2.77537ZM20.7871 28.0371C26.2246 28.0371 31.6621 28.0371 37.0996 28.0371C37.0996 28.6412 37.0996 29.2455 37.0996 29.8496C31.6621 29.8496 26.2246 29.8496 20.7871 29.8496C20.7871 29.2455 20.7871 28.6412 20.7871 28.0371Z" fill="white"/>
<path opacity="0.926" fill-rule="evenodd" clip-rule="evenodd" d="M32.1152 3.79492C39.9678 4.84013 46.0661 8.65394 50.4101 15.2363C52.4575 18.4236 53.6658 21.8975 54.0351 25.6582C53.9462 25.8605 53.8141 26.0304 53.6386 26.168C53.1391 26.3109 52.7048 26.2165 52.3359 25.8848C50.9768 17.9994 46.8421 12.0898 39.9316 8.15625C37.4262 6.86909 34.7831 6.00061 32.0019 5.55078C31.3925 4.93308 31.4303 4.34779 32.1152 3.79492Z" fill="white"/>
<path opacity="0.996" fill-rule="evenodd" clip-rule="evenodd" d="M15.8027 22.5996C17.3998 22.5469 18.9857 22.6036 20.5605 22.7695C20.6314 22.8545 20.6881 22.949 20.7304 23.0527C20.7871 24.1093 20.8059 25.1667 20.7871 26.2246C26.2246 26.2246 31.6621 26.2246 37.0996 26.2246C37.0808 25.1667 37.0996 24.1093 37.1562 23.0527C37.2129 22.8451 37.3451 22.7129 37.5527 22.6562C39.0631 22.5807 40.5736 22.5807 42.084 22.6562C42.2916 22.7129 42.4238 22.8451 42.4804 23.0527C42.537 23.5043 42.5559 23.9574 42.5371 24.4121C43.595 24.3933 44.6524 24.4121 45.709 24.4687C45.8127 24.5111 45.9072 24.5678 45.9922 24.6387C46.1223 26.0632 46.179 27.4981 46.1621 28.9434C46.179 30.3886 46.1223 31.8235 45.9922 33.248C45.9072 33.319 45.8127 33.3756 45.709 33.418C44.6524 33.4746 43.595 33.4934 42.5371 33.4746C42.5559 33.9293 42.537 34.3824 42.4804 34.834C42.4238 35.0416 42.2916 35.1738 42.084 35.2305C40.5736 35.306 39.0631 35.306 37.5527 35.2305C37.3451 35.1738 37.2129 35.0416 37.1562 34.834C37.0996 33.7774 37.0808 32.72 37.0996 31.6621C31.6621 31.6621 26.2246 31.6621 20.7871 31.6621C20.8059 32.72 20.7871 33.7774 20.7304 34.834C20.6738 35.0416 20.5416 35.1738 20.334 35.2305C18.8236 35.306 17.3131 35.306 15.8027 35.2305C15.5951 35.1738 15.4629 35.0416 15.4062 34.834C15.3497 34.3824 15.3308 33.9293 15.3496 33.4746C14.2917 33.4934 13.2343 33.4746 12.1777 33.418C12.0739 33.3756 11.9795 33.319 11.8945 33.248C11.7643 31.8235 11.7077 30.3886 11.7246 28.9434C11.7077 27.4981 11.7643 26.0632 11.8945 24.6387C11.9795 24.5678 12.0739 24.5111 12.1777 24.4687C13.2343 24.4121 14.2917 24.3933 15.3496 24.4121C15.3308 23.9574 15.3497 23.5043 15.4062 23.0527C15.4844 22.8432 15.6165 22.692 15.8027 22.5996ZM17.1621 24.4121C17.7662 24.4121 18.3705 24.4121 18.9746 24.4121C18.9746 27.433 18.9746 30.4537 18.9746 33.4746C18.3705 33.4746 17.7662 33.4746 17.1621 33.4746C17.1621 30.4537 17.1621 27.433 17.1621 24.4121ZM38.9121 24.4121C39.5162 24.4121 40.1205 24.4121 40.7246 24.4121C40.7246 27.433 40.7246 30.4537 40.7246 33.4746C40.1205 33.4746 39.5162 33.4746 38.9121 33.4746C38.9121 30.4537 38.9121 27.433 38.9121 24.4121ZM13.5371 26.2246C14.1412 26.2246 14.7455 26.2246 15.3496 26.2246C15.3496 28.0371 15.3496 29.8496 15.3496 31.6621C14.7455 31.6621 14.1412 31.6621 13.5371 31.6621C13.5371 29.8496 13.5371 28.0371 13.5371 26.2246ZM42.5371 26.2246C43.1412 26.2246 43.7455 26.2246 44.3496 26.2246C44.3496 28.0371 44.3496 29.8496 44.3496 31.6621C43.7455 31.6621 43.1412 31.6621 42.5371 31.6621C42.5371 29.8496 42.5371 28.0371 42.5371 26.2246ZM20.7871 28.0371C20.7871 28.6412 20.7871 29.2455 20.7871 29.8496C26.2246 29.8496 31.6621 29.8496 37.0996 29.8496C37.0996 29.2455 37.0996 28.6412 37.0996 28.0371C31.6621 28.0371 26.2246 28.0371 20.7871 28.0371Z" fill="white"/>
</g>
</svg>
