<svg width="58" height="58" viewBox="0 0 58 58" fill="none" xmlns="http://www.w3.org/2000/svg">
<g opacity="0.65" clip-path="url(#clip0_159_168)">
<path opacity="0.935" fill-rule="evenodd" clip-rule="evenodd" d="M14.7832 -0.0566406C15.5006 -0.0566406 16.2181 -0.0566406 16.9355 -0.0566406C18.0127 0.225895 18.919 0.792302 19.6543 1.64258C20.596 1.73679 21.5401 1.79343 22.4863 1.8125C23.2485 2.00815 23.7583 2.48016 24.0156 3.22852C24.0723 4.58737 24.0912 5.94674 24.0723 7.30664C33.3614 7.28776 42.6505 7.30664 51.9395 7.36328C53.2324 7.63686 54.0443 8.41094 54.375 9.68555C54.4506 13.0463 54.4506 16.4069 54.375 19.7676C54.0716 20.7506 53.4486 21.4492 52.5059 21.8633C44.6566 21.9947 36.8025 22.0513 28.9434 22.0332C21.2402 22.0143 13.5371 21.9955 5.83399 21.9766C4.65658 21.6678 3.88249 20.9314 3.51172 19.7676C3.4362 16.4069 3.4362 13.0463 3.51172 9.68555C3.84239 8.41094 4.65424 7.63686 5.94727 7.36328C6.51242 7.30672 7.07882 7.28785 7.64649 7.30664C7.62763 5.98449 7.6465 4.66287 7.70313 3.3418C7.91081 2.52994 8.42057 2.02018 9.23242 1.8125C10.1764 1.77474 11.1204 1.73698 12.0645 1.69922C12.8161 0.852791 13.7223 0.267505 14.7832 -0.0566406ZM15.8027 1.64258C18.1558 2.00628 19.1564 3.36565 18.8047 5.7207C18.0612 7.48017 16.7585 8.14097 14.8965 7.70312C13.0903 6.8658 12.4673 5.48754 13.0273 3.56836C13.6223 2.43215 14.5475 1.79023 15.8027 1.64258ZM9.57227 3.56836C10.1023 3.54958 10.6309 3.56845 11.1582 3.625C10.632 6.19775 11.5383 8.08578 13.877 9.28906C16.2147 10.1433 18.1972 9.63355 19.8242 7.75977C20.6804 6.48091 20.9636 5.08377 20.6738 3.56836C21.1948 3.53437 21.7046 3.57213 22.2031 3.68164C22.2069 6.14329 22.2823 8.59772 22.4297 11.0449C22.9909 11.5181 23.5195 11.4803 24.0156 10.9316C24.0722 10.3287 24.0911 9.72448 24.0723 9.11914C33.2482 9.10026 42.4239 9.11914 51.5996 9.17578C52.0731 9.2893 52.3942 9.5725 52.5625 10.0254C52.6381 13.1595 52.6381 16.2936 52.5625 19.4277C52.3854 19.7934 52.1022 20.0389 51.7129 20.1641C36.5332 20.2396 21.3535 20.2396 6.17383 20.1641C5.78447 20.0389 5.50127 19.7934 5.32422 19.4277C5.2487 16.2936 5.2487 13.1595 5.32422 10.0254C5.41326 9.67618 5.62094 9.43073 5.94727 9.28906C6.50248 9.13892 7.06889 9.08228 7.64649 9.11914C7.62761 11.5361 7.64649 13.9527 7.70313 16.3691C7.85443 17.0489 8.25091 17.521 8.89258 17.7852C13.4549 17.972 18.0238 18.0098 22.5996 17.8984C23.1689 17.7071 23.6032 17.3483 23.9023 16.8223C24.0804 15.8871 24.1181 14.943 24.0156 13.9902C23.5195 13.4416 22.9909 13.4038 22.4297 13.877C22.3095 14.6135 22.2151 15.3498 22.1465 16.0859C17.9551 16.1615 13.7637 16.1615 9.57227 16.0859C9.42157 11.9134 9.42157 7.74088 9.57227 3.56836Z" fill="white"/>
<path opacity="0.891" fill-rule="evenodd" clip-rule="evenodd" d="M14.2168 3.00196C14.6108 2.96619 14.9884 3.02283 15.3496 3.17189C15.7838 3.53061 16.2181 3.88933 16.6523 4.24806C16.9372 5.20928 16.5785 5.68129 15.5761 5.66407C14.996 5.27295 14.4485 4.83869 13.9336 4.36134C13.6726 3.83518 13.7669 3.38206 14.2168 3.00196Z" fill="white"/>
<path opacity="0.916" fill-rule="evenodd" clip-rule="evenodd" d="M28.4903 13.7637C30.1144 13.7448 31.7382 13.7637 33.3614 13.8203C33.8554 14.0725 34.0253 14.469 33.8711 15.0098C33.7768 15.2553 33.6069 15.4252 33.3614 15.5195C31.6999 15.5951 30.0385 15.5951 28.377 15.5195C27.8066 15.1782 27.6744 14.7062 27.9805 14.1035C28.1401 13.9584 28.3101 13.8451 28.4903 13.7637Z" fill="white"/>
<path opacity="0.928" fill-rule="evenodd" clip-rule="evenodd" d="M35.5137 13.7637C39.9318 13.7448 44.3498 13.7637 48.7676 13.8203C49.2852 14.1082 49.4551 14.5425 49.2774 15.1231C49.1452 15.2553 49.0131 15.3873 48.8809 15.5195C44.3874 15.5951 39.894 15.5951 35.4004 15.5195C34.8301 15.1782 34.6979 14.7062 35.004 14.1035C35.1636 13.9584 35.3335 13.8451 35.5137 13.7637Z" fill="white"/>
<path opacity="0.945" fill-rule="evenodd" clip-rule="evenodd" d="M52.166 57.9434C36.6842 57.9434 21.2025 57.9434 5.72071 57.9434C4.6277 57.5488 3.89137 56.7936 3.51172 55.6777C3.4362 51.9017 3.4362 48.1256 3.51172 44.3496C3.8414 43.076 4.65326 42.302 5.94727 42.0274C8.17514 41.9518 10.403 41.9518 12.6309 42.0274C13.2012 42.3687 13.3334 42.8407 13.0273 43.4434C12.9251 43.5794 12.793 43.6739 12.6309 43.7266C10.5163 43.7643 8.4017 43.8021 6.28711 43.8399C5.81356 43.9534 5.4926 44.2366 5.32422 44.6895C5.2487 48.2389 5.2487 51.7885 5.32422 55.3379C5.49414 55.6588 5.73959 55.9043 6.06055 56.0742C13.6842 56.2054 21.3117 56.2621 28.9434 56.2442C36.3822 56.2252 43.8209 56.2064 51.2598 56.1875C51.8717 56.1743 52.306 55.8911 52.5625 55.3379C52.6381 51.7885 52.6381 48.2389 52.5625 44.6895C52.4735 44.3402 52.2658 44.0949 51.9395 43.9531C42.8835 43.7842 33.821 43.7276 24.752 43.7832C24.8941 45.9726 24.9886 48.1628 25.0352 50.3535C24.8114 51.2572 24.2639 51.8802 23.3926 52.2227C22.4746 52.2335 21.6816 52.5357 21.0137 53.1289C19.0711 54.097 17.0698 54.2291 15.0098 53.5254C13.0116 54.9585 10.9725 55.0152 8.89258 53.6953C6.83154 51.7177 6.54834 49.5087 8.04297 47.0684C10.0236 45.0071 12.2326 44.7239 14.6699 46.2188C14.8398 46.3887 15.0098 46.5586 15.1797 46.7285C15.8863 46.4564 16.6227 46.3431 17.3887 46.3887C18.044 46.3719 18.686 46.4475 19.3145 46.6152C19.4275 45.6742 19.4652 44.7302 19.4277 43.7832C18.2565 43.802 17.086 43.7832 15.916 43.7266C15.3456 43.3853 15.2134 42.9132 15.5195 42.3106C15.6218 42.1745 15.7539 42.08 15.916 42.0274C17.0488 41.9896 18.1816 41.9518 19.3145 41.9141C19.1399 41.7352 19.0077 41.5274 18.918 41.291C18.8614 40.8773 18.8426 40.462 18.8613 40.0449C14.5943 40.0639 10.3273 40.0449 6.06055 39.9883C4.72052 39.7445 3.87091 38.9704 3.51172 37.666C3.4362 33.89 3.4362 30.1139 3.51172 26.3379C3.96923 24.9365 4.93212 24.1623 6.40039 24.0156C13.9147 23.9967 21.4291 23.9779 28.9434 23.959C36.6876 23.9412 44.4286 23.9979 52.166 24.1289C53.2799 24.4877 54.0162 25.224 54.375 26.3379C54.4506 27.7728 54.4506 29.2077 54.375 30.6426C53.633 31.331 53.0666 31.2177 52.6758 30.3027C52.6381 29.0944 52.6002 27.8861 52.5625 26.6777C52.3234 26.1743 51.9269 25.8911 51.3731 25.8281C36.4199 25.7526 21.4668 25.7526 6.51367 25.8281C5.95981 25.8911 5.56332 26.1743 5.32422 26.6777C5.2487 30.2272 5.2487 33.7767 5.32422 37.3262C5.46582 37.6288 5.6735 37.8741 5.94727 38.0625C10.3962 38.2493 14.852 38.287 19.3145 38.1758C19.4335 38.0189 19.5845 37.9056 19.7676 37.836C21.278 37.7604 22.7885 37.7604 24.2988 37.836C24.4498 37.9492 24.601 38.0625 24.752 38.1758C33.7012 38.2514 42.6504 38.2514 51.5996 38.1758C52.061 38.0544 52.382 37.7712 52.5625 37.3262C52.6002 36.2311 52.6381 35.1361 52.6758 34.041C53.0666 33.1261 53.633 33.0128 54.375 33.7012C54.4506 35.0228 54.4506 36.3444 54.375 37.666C54.0158 38.9704 53.1662 39.7445 51.8262 39.9883C42.9148 40.0449 34.0033 40.0639 25.0918 40.0449C25.1675 40.6934 25.0542 41.2975 24.752 41.8574C33.8142 41.9518 42.8767 42.0084 51.9395 42.0274C53.2324 42.3009 54.0443 43.075 54.375 44.3496C54.4506 48.1256 54.4506 51.9017 54.375 55.6777C53.9954 56.7936 53.2591 57.5488 52.166 57.9434ZM20.6738 39.4785C21.5424 39.4785 22.4108 39.4785 23.2793 39.4785C23.3641 40.2399 23.2319 40.9573 22.8828 41.6309C22.9145 44.2209 23.0466 46.8075 23.2793 49.3906C23.3674 49.9711 23.1409 50.3487 22.5996 50.5235C22.0306 50.6246 21.4642 50.7379 20.9004 50.8633C19.3208 52.2261 17.5461 52.5282 15.5762 51.7695C15.0295 51.3364 14.4443 50.9776 13.8203 50.6934C12.9356 50.9771 12.7279 51.5436 13.1973 52.3926C11.7329 53.1456 10.4679 52.8812 9.40235 51.5996C8.52112 49.8186 8.9176 48.4026 10.5918 47.3516C12.1684 46.8323 13.4523 47.2477 14.4434 48.5977C14.5944 48.6166 14.7455 48.6354 14.8965 48.6543C16.0309 48.2387 17.2014 48.1065 18.4082 48.2578C19.0638 48.4323 19.7057 48.64 20.334 48.8809C20.6298 48.8745 20.8752 48.7612 21.0703 48.541C21.2563 46.2856 21.294 44.02 21.1836 41.7442C21.0636 41.3909 20.9126 41.0511 20.7305 40.7246C20.6739 40.3109 20.6551 39.8956 20.6738 39.4785Z" fill="white"/>
<path opacity="0.94" fill-rule="evenodd" clip-rule="evenodd" d="M8.55279 27.4707C9.73073 27.4255 10.9013 27.4822 12.0645 27.6407C12.7785 28.1076 13.0428 28.7684 12.8575 29.6231C15.1987 29.6231 17.5397 29.6231 19.8809 29.6231C19.7692 28.7592 20.0712 28.0984 20.7872 27.6407C22.1088 27.4141 23.4304 27.4141 24.752 27.6407C25.0729 27.8106 25.3184 28.0561 25.4883 28.377C25.5639 30.7936 25.5639 33.2104 25.4883 35.627C25.3232 35.9057 25.1155 36.1511 24.8653 36.3633C24.1755 36.488 23.477 36.5447 22.7696 36.5332C20.9485 36.9905 19.9856 36.3109 19.8809 34.4942C17.5397 34.4942 15.1987 34.4942 12.8575 34.4942C13.0695 35.4485 12.7297 36.1092 11.8379 36.4766C10.6674 36.5522 9.4968 36.5522 8.32623 36.4766C7.90866 36.3532 7.5877 36.1079 7.36334 35.7403C7.17985 33.405 7.14209 31.0638 7.25006 28.7168C7.45271 28.0418 7.88696 27.6265 8.55279 27.4707ZM9.00592 29.2832C9.68561 29.2832 10.3653 29.2832 11.045 29.2832C11.045 31.0957 11.045 32.9082 11.045 34.7207C10.3653 34.7207 9.68561 34.7207 9.00592 34.7207C9.00592 32.9082 9.00592 31.0957 9.00592 29.2832ZM21.6934 29.2832C22.3731 29.2832 23.0528 29.2832 23.7325 29.2832C23.7325 31.0957 23.7325 32.9082 23.7325 34.7207C23.0528 34.7207 22.3731 34.7207 21.6934 34.7207C21.6934 32.9082 21.6934 31.0957 21.6934 29.2832ZM12.8575 31.4356C15.1987 31.4356 17.5397 31.4356 19.8809 31.4356C19.8809 31.851 19.8809 32.2663 19.8809 32.6817C17.5397 32.6817 15.1987 32.6817 12.8575 32.6817C12.8575 32.2663 12.8575 31.851 12.8575 31.4356Z" fill="white"/>
<path opacity="0.929" fill-rule="evenodd" clip-rule="evenodd" d="M28.377 31.0957C33.0216 31.0768 37.6662 31.0957 42.3106 31.1524C43.0183 31.6637 43.056 32.2301 42.4239 32.8516C37.7416 32.9271 33.0593 32.9271 28.377 32.8516C27.8066 32.5103 27.6744 32.0382 27.9805 31.4356C28.1102 31.3069 28.2424 31.1936 28.377 31.0957Z" fill="white"/>
<path opacity="0.913" fill-rule="evenodd" clip-rule="evenodd" d="M44.3496 31.0957C45.8228 31.0768 47.2954 31.0957 48.7676 31.1524C49.2852 31.4402 49.4551 31.8745 49.2774 32.4551C49.1452 32.5873 49.0131 32.7194 48.8809 32.8516C47.3327 32.9271 45.7846 32.9271 44.2364 32.8516C43.6623 32.5137 43.5301 32.0417 43.8399 31.4356C43.9995 31.2904 44.1694 31.1772 44.3496 31.0957Z" fill="white"/>
<path opacity="0.916" fill-rule="evenodd" clip-rule="evenodd" d="M28.2637 49.1074C30.1521 49.0885 32.0401 49.1074 33.9277 49.1641C34.4764 49.6603 34.5142 50.1888 34.041 50.75C33.9277 50.7877 33.8145 50.8256 33.7012 50.8633C31.9642 50.9389 30.2272 50.9389 28.4902 50.8633C28.0358 50.7671 27.8092 50.4839 27.8106 50.0137C27.8425 49.6477 27.9935 49.3456 28.2637 49.1074Z" fill="white"/>
<path opacity="0.928" fill-rule="evenodd" clip-rule="evenodd" d="M35.8535 49.1074C40.1961 49.0885 44.5385 49.1074 48.8808 49.1641C49.3626 49.5515 49.4571 50.0235 49.164 50.5801C49.0314 50.7379 48.8615 50.8324 48.6543 50.8633C44.4629 50.9389 40.2715 50.9389 36.08 50.8633C35.2623 50.3914 35.1867 49.8062 35.8535 49.1074Z" fill="white"/>
</g>
<defs>
<clipPath id="clip0_159_168">
<rect width="58" height="58" fill="white"/>
</clipPath>
</defs>
</svg>
