<svg width="74" height="74" viewBox="0 0 74 74" fill="none" xmlns="http://www.w3.org/2000/svg">
<g id="free-icon-pilates-9208892 1" opacity="0.85" clip-path="url(#clip0_159_75)">
<g id="Group">
<g id="Vector" opacity="0.934">
<path fill-rule="evenodd" clip-rule="evenodd" d="M24.7871 -0.0722656C25.4134 -0.0722656 26.0398 -0.0722656 26.666 -0.0722656C27.5549 0.218881 28.2053 0.797006 28.6172 1.66211C29.3056 4.92502 29.9318 8.20107 30.4961 11.4902C32.6356 17.5715 34.8036 23.6418 37 29.7012C42.402 28.5309 47.0029 29.9522 50.8027 33.9648C53.9028 35.608 55.6613 38.1856 56.0781 41.6973C56.1263 43.4316 56.1745 45.166 56.2227 46.9004C59.1179 48.3032 60.5151 50.6157 60.4141 53.8379C60.0154 55.9147 59.4373 57.9381 58.6797 59.9082C56.7116 62.7323 54.0619 63.6958 50.7305 62.7988C50.6167 64.1508 50.4963 65.4997 50.3691 66.8457C57.3549 66.8216 64.3407 66.8457 71.3262 66.918C72.5904 67.2913 73.4576 68.0862 73.9277 69.3027C73.9277 69.9773 73.9277 70.6516 73.9277 71.3262C73.4291 72.6667 72.4655 73.4616 71.0371 73.7109C62.7988 73.8073 54.5605 73.8073 46.3223 73.7109C45.877 73.5213 45.636 73.1841 45.5996 72.6992C45.6792 72.0896 46.0164 71.7043 46.6113 71.543C54.6569 71.4948 62.7024 71.4466 70.748 71.3984C71.5294 71.1123 71.7943 70.5581 71.543 69.7363C71.3675 69.5125 71.1507 69.3439 70.8926 69.2305C48.3938 69.2059 25.8951 69.254 3.39648 69.375C2.44979 69.5503 2.08846 70.1044 2.3125 71.0371C2.7395 71.5486 3.29353 71.7895 3.97461 71.7598C16.7399 71.5927 29.5068 71.5686 42.2754 71.6875C42.5403 71.7598 42.709 71.9284 42.7812 72.1934C43.0784 73.2159 42.7171 73.794 41.6973 73.9277C28.5449 73.9277 15.3926 73.9277 2.24023 73.9277C1.81586 73.6664 1.38226 73.4015 0.939453 73.1328C0.545036 72.6547 0.207795 72.1488 -0.0722656 71.6152C-0.0722656 70.8926 -0.0722656 70.1699 -0.0722656 69.4473C0.207795 68.9137 0.545036 68.4078 0.939453 67.9297C1.34975 67.6522 1.78334 67.4113 2.24023 67.207C9.70616 67.0495 17.1736 66.9291 24.6426 66.8457C21.0247 60.9871 17.4355 55.1096 13.875 49.2129C12.7449 46.4779 13.2508 44.0932 15.3926 42.0586C19.1143 39.752 22.8479 37.4637 26.5938 35.1934C26.1367 32.3049 25.6309 29.4143 25.0762 26.5215C25.5576 25.2548 26.3043 25.0622 27.3164 25.9434C27.8523 28.5325 28.3099 31.1341 28.6895 33.748C28.8415 33.7696 28.986 33.7456 29.123 33.6758C30.9781 32.5312 32.857 31.4233 34.7598 30.3516C32.7229 24.7468 30.6994 19.1342 28.6895 13.5137C28.5931 13.4655 28.4968 13.4173 28.4004 13.3691C27.3138 13.5178 26.2538 13.7587 25.2207 14.0918C25.8347 16.7637 26.2443 19.4616 26.4492 22.1855C25.9549 22.8002 25.3527 22.9208 24.6426 22.5469C24.5038 22.3418 24.3834 22.125 24.2812 21.8965C23.8151 19.1476 23.3333 16.4016 22.8359 13.6582C22.2695 12.7665 21.7395 11.8511 21.2461 10.9121C21.127 10.4374 21.0547 9.95557 21.0293 9.4668C21.5174 6.88813 22.1196 4.33475 22.8359 1.80664C23.2841 0.948543 23.9345 0.32224 24.7871 -0.0722656ZM25.3652 2.24023C26.1152 2.05109 26.5247 2.34015 26.5938 3.10742C27.0636 5.74596 27.5695 8.37161 28.1113 10.9844C26.8856 11.3645 25.6329 11.5572 24.3535 11.5625C23.804 10.9691 23.4667 10.2706 23.3418 9.4668C23.8731 7.19731 24.4271 4.933 25.0039 2.67383C25.1549 2.54759 25.2753 2.40306 25.3652 2.24023ZM38.8066 31.5801C43.0267 31.2919 46.5435 32.7131 49.3574 35.8438C50.7159 36.5814 51.8481 37.5692 52.7539 38.8066C53.1242 39.5472 53.4133 40.318 53.6211 41.1191C53.8226 42.894 53.8948 44.6766 53.8379 46.4668C53.2054 46.5159 52.5792 46.6123 51.959 46.7559C51.8626 46.7077 51.7663 46.6595 51.6699 46.6113C52.1482 42.6815 50.4138 40.8268 46.4668 41.0469C45.239 41.3351 44.3237 42.0336 43.7207 43.1426C42.5712 41.3907 41.0778 40.0177 39.2402 39.0234C37.9108 36.947 36.6101 34.8513 35.3379 32.7363C36.4616 32.2011 37.6179 31.8157 38.8066 31.5801ZM33.1699 33.8926C34.2263 35.4246 35.214 37.0145 36.1328 38.6621C36.887 41.0806 36.0921 42.7908 33.748 43.793C33.204 43.9353 32.65 44.0076 32.0859 44.0098C30.7233 43.7625 29.3503 43.6902 27.9668 43.793C26.2748 44.2521 24.5887 44.7339 22.9082 45.2383C21.57 45.9153 21.016 46.9992 21.2461 48.4902C22.2509 50.8854 23.3349 53.2462 24.498 55.5723C23.6012 56.2504 22.6618 56.8768 21.6797 57.4512C19.647 54.2131 17.6717 50.937 15.7539 47.623C15.3233 45.8579 15.8773 44.4848 17.416 43.5039C20.6315 41.6052 23.8258 39.6811 26.9991 37.7318C29.0649 36.4628 31.1219 35.183 33.1699 33.8926ZM38.6621 41.4082C39.4631 41.8466 40.1618 42.4247 40.7578 43.1426C41.6487 44.3458 42.4678 45.5985 43.2148 46.9004C43.4345 53.5555 43.6995 60.2039 44.0098 66.8457C39.6748 66.9902 35.3389 67.0384 31.002 66.9902C30.8895 64.0195 30.5282 61.0806 29.918 58.1738C29.5642 57.5791 29.1547 57.0251 28.6895 56.5117C28.0912 56.1303 27.5131 55.7208 26.9551 55.2832C25.7396 52.8282 24.5833 50.347 23.4863 47.8398C23.5326 47.6009 23.6771 47.4564 23.9199 47.4062C25.3566 46.9435 26.8019 46.5099 28.2559 46.1055C29.563 46.0588 30.8638 46.1311 32.1582 46.3223C35.1189 46.3002 37.2146 44.9512 38.4453 42.2754C38.5628 41.9956 38.6351 41.7065 38.6621 41.4082ZM46.9004 43.2871C48.5056 43.1822 49.3727 43.929 49.502 45.5273C49.0473 52.3927 48.5895 59.258 48.1289 66.123C47.7599 66.8639 47.2059 67.0326 46.4668 66.6289C46.3763 66.5205 46.3041 66.4 46.25 66.2676C45.9088 59.0445 45.716 51.8179 45.6719 44.5879C45.9158 43.983 46.3253 43.5494 46.9004 43.2871ZM53.2598 48.7793C56.1518 48.8532 57.79 50.3226 58.1738 53.1875C57.8326 55.1553 57.2785 57.0582 56.5117 58.8965C55.0369 60.7851 53.1822 61.2909 50.9473 60.4141C50.8718 60.333 50.8237 60.2366 50.8027 60.125C51.0567 56.5338 51.3457 52.9447 51.6699 49.3574C52.1959 49.1023 52.7259 48.9095 53.2598 48.7793ZM25.7988 57.5957C26.8293 57.8365 27.5279 58.4629 27.8945 59.4746C28.2668 61.8264 28.5078 64.1872 28.6172 66.5566C27.9726 67.1618 27.4426 67.0654 27.0273 66.2676C25.6543 64.0032 24.2812 61.739 22.9082 59.4746C23.8812 58.8449 24.8446 58.2185 25.7988 57.5957Z" fill="#272A2B"/>
<path d="M36.1328 38.6621C35.214 37.0145 34.2263 35.4246 33.1699 33.8926C31.1219 35.183 29.0649 36.4628 26.9991 37.7318L27.9668 43.793C29.3503 43.6902 30.7233 43.7625 32.0859 44.0098C32.65 44.0076 33.204 43.9353 33.748 43.793C36.0921 42.7908 36.887 41.0806 36.1328 38.6621Z" fill="#272A2B"/>
</g>
<rect id="Rectangle 17" x="1.2" y="68.2" width="71.6" height="4.6" rx="2.3" stroke="#272A2B" stroke-width="2.4"/>
</g>
</g>
<defs>
<clipPath id="clip0_159_75">
<rect width="74" height="74" fill="white"/>
</clipPath>
</defs>
</svg>
