<svg width="75" height="74" viewBox="0 0 75 74" fill="none" xmlns="http://www.w3.org/2000/svg">
<g id="triathlon 1" opacity="0.85" clip-path="url(#clip0_159_83)">
<g id="Group">
<path id="Vector" opacity="0.926" fill-rule="evenodd" clip-rule="evenodd" d="M35.2597 2.24024C42.6609 1.66541 48.3699 4.45969 52.3867 10.6231C55.2329 15.8814 55.522 21.2772 53.2539 26.8106C49.0931 34.6121 42.6133 37.864 33.8144 36.5664C27.4509 34.9725 23.1391 31.0943 20.8789 24.9317C18.9239 17.7912 20.5861 11.6486 25.8652 6.50392C28.6071 4.21752 31.7385 2.7963 35.2597 2.24024ZM35.4043 4.55274C41.9579 4.08384 46.9925 6.58904 50.5078 12.0684C53.5226 18.0586 53.0407 23.7436 49.0625 29.1231C44.7203 33.9426 39.3967 35.5566 33.0918 33.9649C25.6617 31.1767 22.1207 25.8049 22.4687 17.8496C23.7855 10.4867 28.0975 6.05441 35.4043 4.55274Z" fill="#272A2B"/>
</g>
<g id="Group_2">
<path id="Vector_2" opacity="0.893" fill-rule="evenodd" clip-rule="evenodd" d="M40.752 10.7676C41.7484 10.5169 42.3265 10.8782 42.4863 11.8516C42.2908 12.6275 41.9053 13.302 41.3301 13.875C40.3519 14.2775 39.7738 13.9643 39.5957 12.9355C39.7898 12.1139 40.1753 11.3912 40.752 10.7676Z" fill="#272A2B"/>
</g>
<g id="Group_3">
<path id="Vector_3" opacity="0.919" fill-rule="evenodd" clip-rule="evenodd" d="M34.3926 13.2246C35.2027 13.139 35.9737 13.2595 36.7051 13.5859C38.4876 14.7663 40.2703 15.9465 42.0528 17.1269C42.7955 16.0229 43.5665 14.9389 44.3653 13.875C45.906 13.6081 46.4119 14.2103 45.8829 15.6816C45.1442 16.8538 44.3492 17.9859 43.4981 19.0781C42.8093 19.412 42.0866 19.5084 41.3301 19.3672C40.5472 18.9639 39.8004 18.5062 39.0899 17.9941C38.5661 18.7283 38.0603 19.4751 37.5723 20.2343C38.8731 21.1497 40.1739 22.0651 41.4747 22.9804C42.3372 24.0089 42.4095 25.0929 41.6915 26.2324C41.1739 26.9302 40.692 27.6528 40.2461 28.4004C39.7471 28.8728 39.1931 28.9451 38.584 28.6172C38.0315 27.9964 38.0075 27.346 38.5118 26.666C38.9695 26.0156 39.4271 25.3652 39.8848 24.7148C38.7088 23.9481 37.5525 23.1532 36.4161 22.3301C35.0435 24.4031 33.6945 26.4988 32.3692 28.6172C30.6445 28.9548 30.1386 28.3044 30.8516 26.666C32.9014 23.3643 34.9489 20.0642 36.9942 16.7656C36.5181 16.2722 35.9641 15.8627 35.3321 15.5371C34.339 16.8726 33.3996 18.2456 32.5137 19.6562C31.4912 20.1085 30.8648 19.7954 30.6348 18.7168C30.6728 18.3514 30.7932 18.0142 30.9961 17.7051C31.872 16.4914 32.6911 15.2389 33.4532 13.9472C33.7894 13.7209 34.1024 13.4801 34.3926 13.2246Z" fill="#272A2B"/>
</g>
<g id="Group_4">
<path id="Vector_4" opacity="0.924" fill-rule="evenodd" clip-rule="evenodd" d="M0.427734 56.584C0.427734 55.0905 0.427734 53.597 0.427734 52.1035C2.10947 43.3642 7.36077 38.3297 16.1816 37C20.1101 36.6531 23.7234 37.5445 27.0215 39.6738C27.3756 40.2504 27.3275 40.8045 26.877 41.3359C26.4627 41.5465 26.0291 41.5947 25.5762 41.4805C19.6252 38.2184 13.8922 38.5556 8.37695 42.4922C2.96193 47.3138 1.44436 53.1673 3.82422 60.0527C7.04776 66.7125 12.3713 69.7717 19.7949 69.2305C26.7964 67.8621 31.0601 63.6946 32.5859 56.7285C33.2803 51.9396 32.0278 47.7482 28.8281 44.1543C28.4971 42.8118 29.003 42.2578 30.3457 42.4922C32.4525 44.6076 33.8737 47.1368 34.6094 50.0801C36.079 57.5249 33.8869 63.6193 28.0332 68.3633C23.3358 71.5712 18.2289 72.4383 12.7129 70.9648C5.7747 68.5808 1.67965 63.7871 0.427734 56.584Z" fill="#272A2B"/>
</g>
<g id="Group_5">
<path id="Vector_5" opacity="0.926" fill-rule="evenodd" clip-rule="evenodd" d="M74.4277 52.1035C74.4277 53.597 74.4277 55.0906 74.4277 56.584C73.1211 63.7445 69.0261 68.5382 62.1425 70.9649C54.1469 72.861 47.6671 70.5726 42.7031 64.0996C38.9784 57.9993 38.7856 51.7844 42.1249 45.4551C45.9993 39.4829 51.5154 36.6646 58.6738 37C67.4947 38.3297 72.7459 43.3642 74.4277 52.1035ZM55.6386 39.2403C63.0028 39.0252 68.1818 42.2532 71.1757 48.9239C73.5099 56.568 71.4142 62.6623 64.8886 67.2071C58.1286 70.7067 51.9378 69.9118 46.3164 64.8223C41.6004 59.3678 40.8297 53.3939 44.0039 46.9004C46.6772 42.5166 50.5556 39.9632 55.6386 39.2403Z" fill="#272A2B"/>
</g>
<g id="Group_6">
<path id="Vector_6" opacity="0.881" fill-rule="evenodd" clip-rule="evenodd" d="M24.2754 45.0215C25.0286 44.9236 25.5344 45.2127 25.793 45.8887C25.8894 46.5149 25.8894 47.1413 25.793 47.7676C25.4258 48.4279 24.8716 48.6447 24.1309 48.418C23.9622 48.2493 23.7937 48.0808 23.625 47.9121C23.5286 47.1895 23.5286 46.4668 23.625 45.7441C23.7732 45.4281 23.99 45.1871 24.2754 45.0215Z" fill="#272A2B"/>
</g>
<g id="Group_7">
<path id="Vector_7" opacity="0.928" fill-rule="evenodd" clip-rule="evenodd" d="M18.4943 46.6113C19.4635 46.4533 20.3065 46.6943 21.0236 47.334C21.495 48.3984 21.8563 49.5066 22.1075 50.6582C23.454 50.7784 24.8029 50.8507 26.1544 50.875C26.9635 51.2645 27.1803 51.8668 26.8048 52.6816C26.6743 52.8552 26.5058 52.9757 26.2989 53.043C24.661 53.1394 23.0229 53.1394 21.3849 53.043C20.8896 52.8361 20.4801 52.5229 20.1564 52.1035C19.8179 51.037 19.4807 49.9772 19.1446 48.9238C17.3405 49.6218 15.5338 50.3203 13.7247 51.0195C15.1677 51.6927 16.5649 52.4394 17.9161 53.2598C18.5099 54.0586 18.6303 54.9258 18.2775 55.8613C17.2576 57.6593 16.4386 59.5382 15.8204 61.498C14.1805 63.5761 12.133 64.082 9.67785 63.0156C7.2661 61.3168 6.71207 59.1248 8.01574 56.4394C9.48443 54.5047 11.3874 53.9025 13.7247 54.6328C14.4438 54.9326 15.046 55.3903 15.5314 56.0058C15.7664 55.6565 15.9832 55.2952 16.1818 54.9219C14.9037 54.2105 13.6029 53.5361 12.2794 52.8984C11.3921 52.0179 11.1753 50.9821 11.629 49.791C11.894 49.5261 12.159 49.261 12.4239 48.9961C14.4763 48.2334 16.4997 47.4385 18.4943 46.6113ZM11.5568 56.584C10.9783 56.7905 10.4725 57.1277 10.0392 57.5957C9.36741 58.9638 9.6324 60.0959 10.8341 60.9922C12.7354 61.5235 13.8916 60.825 14.3029 58.8965C13.9984 57.3868 13.0831 56.6161 11.5568 56.584Z" fill="#272A2B"/>
</g>
<g id="Group_8">
<path id="Vector_8" opacity="0.926" fill-rule="evenodd" clip-rule="evenodd" d="M55.0607 48.4902C55.668 48.4735 56.2461 48.5939 56.795 48.8516C59.4985 51.7955 62.1482 54.7826 64.7442 57.8125C65.1712 57.8132 65.6048 57.7892 66.045 57.7402C67.2892 57.6704 67.7469 58.2486 67.4181 59.4746C66.8674 59.9522 66.217 60.1689 65.4669 60.125C63.8373 61.0711 62.1029 61.3602 60.2638 60.9922C59.5262 60.744 58.8036 60.455 58.0958 60.125C57.4696 60.0286 56.8432 60.0286 56.2169 60.125C54.3877 61.1849 52.4607 61.4256 50.4357 60.8477C49.4004 60.244 48.2923 59.8826 47.1114 59.7637C46.5041 59.0659 46.5524 58.4155 47.256 57.8125C48.3241 57.6612 49.3598 57.7816 50.3634 58.1738C52.6411 56.3714 54.8813 54.5166 57.0841 52.6094C56.5362 52.0631 56.0062 51.5091 55.4942 50.9473C53.9259 52.1895 52.3842 53.4662 50.8692 54.7774C49.6477 55.2401 49.0454 54.8305 49.0626 53.5488C49.1126 53.2095 49.2813 52.9446 49.5685 52.7539C51.1043 51.5558 52.5977 50.3031 54.0489 48.9961C54.3994 48.8208 54.7368 48.6523 55.0607 48.4902ZM53.9044 58.4629C56.2009 57.4448 58.4652 57.5171 60.6974 58.6797C61.2157 58.8398 61.7457 58.9121 62.2872 58.8965C62.3088 58.7444 62.2848 58.5999 62.2149 58.4629C60.9569 57.1569 59.7524 55.808 58.6017 54.416C57.0121 55.7505 55.4463 57.0994 53.9044 58.4629Z" fill="#272A2B"/>
</g>
<g id="Group_9">
<path id="Vector_9" opacity="0.875" fill-rule="evenodd" clip-rule="evenodd" d="M64.8886 50.2246C66.0732 50.2288 66.5309 50.8069 66.2617 51.959C65.804 52.6094 65.25 53.1634 64.5996 53.6211C63.2453 53.8233 62.7395 53.2693 63.082 51.959C63.5738 51.2501 64.1761 50.6719 64.8886 50.2246Z" fill="#272A2B"/>
</g>
<g id="Group_10">
<path id="Vector_10" opacity="0.926" fill-rule="evenodd" clip-rule="evenodd" d="M22.9745 54.2715C25.7763 54.2563 27.4865 55.6054 28.1054 58.3184C28.2674 60.9576 27.087 62.668 24.5644 63.4492C21.7129 63.8188 19.8581 62.6385 18.9999 59.9082C18.6937 56.8544 20.0184 54.9755 22.9745 54.2715ZM23.1191 56.584C22.7952 56.746 22.4578 56.9145 22.1073 57.0898C20.9082 58.3896 20.9563 59.6423 22.2519 60.8477C24.5122 61.6566 25.6924 60.8617 25.7929 58.4629C25.3591 57.1861 24.4678 56.5597 23.1191 56.584Z" fill="#272A2B"/>
</g>
</g>
<defs>
<clipPath id="clip0_159_83">
<rect width="74" height="74" fill="white" transform="translate(0.5)"/>
</clipPath>
</defs>
</svg>
