<svg width="74" height="74" viewBox="0 0 74 74" fill="none" xmlns="http://www.w3.org/2000/svg">
<g id="Frame 117" opacity="0.85">
<g id="Group">
<path id="Vector" opacity="0.943" fill-rule="evenodd" clip-rule="evenodd" d="M34.9765 0C36.3254 0 37.6744 0 39.0234 0C46.5281 1.6577 50.575 6.33087 51.164 14.0195C51.0917 18.7406 49.2128 22.5467 45.5273 25.4375C45.3829 27.0727 45.3347 28.7107 45.3827 30.3516C46.1551 30.3276 46.9259 30.3517 47.6952 30.4238C48.453 31.0869 48.453 31.7615 47.6952 32.4473C45.9616 32.5195 44.2272 32.5437 42.4921 32.5195C42.5586 34.3166 42.4863 36.0991 42.2753 37.8672C42.1549 37.9876 42.0344 38.1081 41.914 38.2285C38.6379 38.3249 35.3619 38.3249 32.0859 38.2285C31.9172 38.0599 31.7487 37.8913 31.58 37.7227C31.5077 35.989 31.4836 34.2546 31.5077 32.5195C29.7726 32.5437 28.0383 32.5195 26.3046 32.4473C25.5957 31.845 25.5476 31.1946 26.1601 30.4961C26.97 30.3582 27.7891 30.3099 28.6171 30.3516C28.6651 28.7107 28.617 27.0727 28.4726 25.4375C23.8409 21.6373 22.0824 16.7716 23.1972 10.8398C24.8921 4.78435 28.8186 1.17106 34.9765 0ZM35.2655 2.3125C41.6966 1.93394 46.0565 4.72822 48.3456 10.6953C49.5277 15.3378 48.4438 19.3605 45.0937 22.7637C44.3972 23.2678 43.7468 23.8218 43.1425 24.4258C43.0702 26.4005 43.0461 28.3757 43.0702 30.3516C39.0234 30.3516 34.9765 30.3516 30.9296 30.3516C30.9537 28.3757 30.9296 26.4005 30.8573 24.4258C29.6878 23.4313 28.5797 22.3714 27.5331 21.2461C24.3138 16.3864 24.362 11.5686 27.6777 6.79297C29.6538 4.35835 32.1831 2.86487 35.2655 2.3125ZM41.6249 9.25C42.8572 9.25944 43.2666 9.83756 42.8534 10.9844C40.5168 13.5137 38.1803 16.043 35.8437 18.5723C35.3858 18.9528 34.9039 19.0011 34.3984 18.7168C33.331 17.5708 32.247 16.4386 31.1464 15.3203C30.7466 14.3853 31.0357 13.8072 32.0136 13.5859C32.2979 13.592 32.563 13.6643 32.8085 13.8027C33.2902 14.4772 33.8684 15.0554 34.5429 15.5371C34.948 15.6462 35.3335 15.5981 35.6991 15.3926C37.6591 13.3124 39.6344 11.2649 41.6249 9.25ZM33.8202 32.5195C35.9401 32.5195 38.0598 32.5195 40.1796 32.5195C40.1796 33.7239 40.1796 34.9284 40.1796 36.1328C38.0598 36.1328 35.9401 36.1328 33.8202 36.1328C33.8202 34.9284 33.8202 33.7239 33.8202 32.5195Z" fill="#272A2B"/>
</g>
<g id="Group_2">
<path id="Vector_2" opacity="0.889" fill-rule="evenodd" clip-rule="evenodd" d="M16.7656 5.92578C17.7088 6.20419 18.6241 6.56552 19.5117 7.00977C20.1061 7.51698 20.2265 8.1192 19.873 8.81641C19.5873 9.01946 19.2742 9.16399 18.9336 9.25C17.9847 8.92024 17.0694 8.51072 16.1875 8.02148C15.5713 7.09977 15.764 6.4012 16.7656 5.92578Z" fill="#272A2B"/>
</g>
<g id="Group_3">
<path id="Vector_3" opacity="0.889" fill-rule="evenodd" clip-rule="evenodd" d="M56.8008 5.92578C58.0061 6.04518 58.4155 6.67149 58.0293 7.80469C57.19 8.35683 56.2989 8.81451 55.3555 9.17773C54.0698 9.18555 53.6603 8.58334 54.127 7.37109C54.2474 7.25066 54.3679 7.1302 54.4883 7.00977C55.2897 6.68094 56.0605 6.31961 56.8008 5.92578Z" fill="#272A2B"/>
</g>
<g id="Group_4">
<path id="Vector_4" opacity="0.943" fill-rule="evenodd" clip-rule="evenodd" d="M14.7423 13.008C15.8514 12.984 16.9595 13.0081 18.0665 13.0803C18.8243 13.7435 18.8243 14.418 18.0665 15.1037C16.9584 15.2001 15.8504 15.2001 14.7423 15.1037C13.9798 14.3987 13.9798 13.7002 14.7423 13.008Z" fill="#272A2B"/>
</g>
<g id="Group_5">
<path id="Vector_5" opacity="0.943" fill-rule="evenodd" clip-rule="evenodd" d="M55.9336 13.008C57.0428 12.984 58.1509 13.0081 59.2578 13.0803C60.0156 13.7435 60.0156 14.418 59.2578 15.1037C58.1497 15.2001 57.0417 15.2001 55.9336 15.1037C55.1712 14.3987 55.1712 13.7002 55.9336 13.008Z" fill="#272A2B"/>
</g>
<g id="Group_6">
<path id="Vector_6" opacity="0.889" fill-rule="evenodd" clip-rule="evenodd" d="M18.6445 18.9336C19.9279 18.996 20.3374 19.6223 19.873 20.8125C18.9745 21.4064 18.0109 21.8881 16.9824 22.2578C15.9357 22.0063 15.5985 21.3799 15.9707 20.3789C16.8409 19.8358 17.7322 19.354 18.6445 18.9336Z" fill="#272A2B"/>
</g>
<g id="Group_7">
<path id="Vector_7" opacity="0.889" fill-rule="evenodd" clip-rule="evenodd" d="M54.7774 18.9336C55.8476 19.179 56.8593 19.5886 57.8125 20.1621C58.4649 21.191 58.1999 21.8895 57.0176 22.2578C55.9891 21.8881 55.0255 21.4064 54.127 20.8125C53.7071 19.9466 53.9239 19.3204 54.7774 18.9336Z" fill="#272A2B"/>
</g>
<g id="Group_8">
<path id="Vector_8" opacity="0.935" fill-rule="evenodd" clip-rule="evenodd" d="M74 58.5353C74 60.7997 74 63.0639 74 65.3283C73.6962 65.673 73.3107 65.8657 72.8438 65.9064C62.0955 62.5264 51.7374 63.4417 41.7695 68.6525C41.7214 68.7248 41.6731 68.7971 41.625 68.8693C42.521 71.1703 41.8946 72.8805 39.7461 74.0002C37.9153 74.0002 36.0847 74.0002 34.2539 74.0002C32.1063 72.8834 31.4799 71.173 32.375 68.8693C28.1991 66.3542 23.6705 64.8126 18.7891 64.2443C12.765 63.4811 6.86327 64.035 1.08398 65.9064C0.647003 65.8447 0.285675 65.6519 0 65.3283C0 63.0639 0 60.7997 0 58.5353C1.11389 57.8498 2.31831 57.344 3.61328 57.0178C3.74741 56.9617 3.84375 56.8653 3.90234 56.7287C3.07815 54.0153 2.28323 51.2932 1.51758 48.5627C1.26626 47.7409 1.53124 47.1868 2.3125 46.9006C9.16788 45.4074 16.009 45.4556 22.8359 47.0451C28.2887 48.5416 33.0101 51.2635 37 55.2111C43.8222 48.76 51.9642 45.6284 61.4258 45.8166C65.0448 45.7664 68.61 46.1759 72.1211 47.0451C72.5207 47.478 72.6411 47.9838 72.4824 48.5627C71.7168 51.2932 70.9219 54.0153 70.0977 56.7287C70.1562 56.8653 70.2526 56.9617 70.3867 57.0178C71.6817 57.344 72.8861 57.8498 74 58.5353ZM9.39453 48.1291C17.5507 47.4339 25.0182 49.3369 31.7969 53.8381C33.2299 54.9517 34.5548 56.1802 35.7715 57.5236C35.8917 58.6829 35.8676 59.8392 35.6992 60.9924C26.5092 55.9076 16.7533 54.3661 6.43164 56.3674C6.295 56.3088 6.19864 56.2124 6.14258 56.0783C5.92792 55.4123 5.7593 54.7379 5.63672 54.0549C9.81577 52.6059 14.1035 52.1482 18.5 52.6818C19.0365 52.3058 19.205 51.7999 19.0059 51.1642C18.8456 50.8297 18.5805 50.6129 18.2109 50.5139C13.6776 49.8055 9.26941 50.2632 4.98633 51.8869C4.62864 50.9379 4.31549 49.9745 4.04688 48.9963C5.83068 48.5994 7.61324 48.3103 9.39453 48.1291ZM58.2461 48.1291C60.3664 48.105 62.4862 48.1291 64.6055 48.2014C66.4136 48.3129 68.1962 48.5779 69.9531 48.9963C69.6844 49.9745 69.3714 50.9379 69.0137 51.8869C64.7292 50.2754 60.321 49.8178 55.7891 50.5139C55.0051 50.8054 54.7401 51.3594 54.9941 52.176C55.1628 52.3446 55.3313 52.5132 55.5 52.6818C59.7906 52.1521 63.982 52.5857 68.0742 53.9826C68.2211 54.0576 68.3173 54.1782 68.3633 54.3439C68.1946 54.9221 68.0261 55.5002 67.8574 56.0783C67.8013 56.2124 67.7049 56.3088 67.5684 56.3674C57.2465 54.3661 47.4907 55.9078 38.3008 60.9924C38.1324 59.8392 38.1083 58.6829 38.2285 57.5236C42.5218 52.9063 47.7972 49.9915 54.0547 48.7795C55.4697 48.5397 56.8667 48.3229 58.2461 48.1291ZM12.2852 57.8127C18.8798 57.4985 25.1911 58.6789 31.2188 61.3537C33.1806 62.3104 35.1077 63.2979 37 64.3166C38.8923 63.2979 40.8194 62.3104 42.7812 61.3537C52.2334 57.1937 61.8689 56.7119 71.6875 59.9084C71.8293 60.9798 71.8774 62.0638 71.832 63.1603C60.4626 60.1063 49.6711 61.4793 39.457 67.2795C39.1761 67.5284 39.0315 67.8416 39.0234 68.2189C39.2493 69.0655 39.4903 69.9085 39.7461 70.7482C39.5997 71.2801 39.2623 71.6173 38.7344 71.76C37.5781 71.8564 36.4219 71.8564 35.2656 71.76C34.7377 71.6173 34.4003 71.2801 34.2539 70.7482C34.5097 69.9085 34.7507 69.0655 34.9766 68.2189C34.9425 67.6306 34.6534 67.2211 34.1094 66.9904C23.9844 61.4411 13.3373 60.1644 2.16797 63.1603C2.12256 62.0638 2.17074 60.9798 2.3125 59.9084C5.5721 58.8039 8.89632 58.1054 12.2852 57.8127Z" fill="#272A2B"/>
</g>
<g id="Group_9">
<path id="Vector_9" opacity="0.875" fill-rule="evenodd" clip-rule="evenodd" d="M21.9688 51.5977C23.6622 51.8502 23.9994 52.6451 22.9806 53.9824C21.6718 54.1666 21.0696 53.6126 21.1739 52.3203C21.3693 51.9953 21.6342 51.7543 21.9688 51.5977Z" fill="#272A2B"/>
</g>
<g id="Group_10">
<path id="Vector_10" opacity="0.867" fill-rule="evenodd" clip-rule="evenodd" d="M51.4531 51.5979C52.3803 51.4692 52.9103 51.8547 53.043 52.7541C52.9113 53.6053 52.4054 54.0389 51.5254 54.0549C50.5283 53.8942 50.1911 53.3161 50.5137 52.3205C50.7977 52.0242 51.1109 51.7833 51.4531 51.5979Z" fill="#272A2B"/>
</g>
</g>
</svg>
