<svg width="32" height="32" viewBox="0 0 32 32" fill="none" xmlns="http://www.w3.org/2000/svg">
<path d="M13.667 16C13.667 14.7114 14.7114 13.6665 16 13.6665C17.2886 13.6665 18.3335 14.7114 18.3335 16C18.3335 17.2886 17.2886 18.3335 16 18.3335C14.7114 18.3335 13.667 17.2886 13.667 16ZM12.4056 16C12.4056 17.9852 14.0148 19.5944 16 19.5944C17.9852 19.5944 19.5944 17.9852 19.5944 16C19.5944 14.0148 17.9852 12.4056 16 12.4056C14.0148 12.4056 12.4056 14.0148 12.4056 16ZM18.8967 12.2631C18.8966 12.4292 18.9458 12.5916 19.0381 12.7298C19.1303 12.868 19.2615 12.9757 19.4149 13.0393C19.5684 13.103 19.7373 13.1197 19.9003 13.0873C20.0632 13.055 20.2129 12.975 20.3304 12.8576C20.448 12.7402 20.528 12.5905 20.5605 12.4276C20.593 12.2647 20.5764 12.0958 20.5129 11.9423C20.4494 11.7887 20.3418 11.6575 20.2037 11.5652C20.0656 11.4728 19.9032 11.4235 19.737 11.4234H19.7367C19.514 11.4235 19.3005 11.512 19.143 11.6694C18.9855 11.8269 18.8969 12.0404 18.8967 12.2631ZM13.172 21.6978C12.4895 21.6668 12.1186 21.5531 11.8721 21.457C11.5453 21.3298 11.3121 21.1783 11.0669 20.9334C10.8217 20.6886 10.67 20.4556 10.5433 20.1288C10.4472 19.8824 10.3335 19.5114 10.3025 18.8289C10.2686 18.091 10.2618 17.8694 10.2618 16.0001C10.2618 14.1307 10.2691 13.9097 10.3025 13.1712C10.3336 12.4887 10.4481 12.1184 10.5433 11.8713C10.6705 11.5445 10.8221 11.3113 11.0669 11.0661C11.3117 10.821 11.5447 10.6692 11.8721 10.5425C12.1185 10.4464 12.4895 10.3327 13.172 10.3017C13.9099 10.2678 14.1315 10.261 16 10.261C17.8685 10.261 18.0904 10.2683 18.8288 10.3017C19.5113 10.3328 19.8816 10.4473 20.1288 10.5425C20.4556 10.6692 20.6888 10.8213 20.9339 11.0661C21.1791 11.311 21.3303 11.5445 21.4575 11.8713C21.5536 12.1177 21.6673 12.4887 21.6983 13.1712C21.7323 13.9097 21.739 14.1307 21.739 16.0001C21.739 17.8694 21.7323 18.0904 21.6983 18.8289C21.6673 19.5114 21.553 19.8823 21.4575 20.1288C21.3303 20.4556 21.1788 20.6888 20.9339 20.9334C20.6891 21.178 20.4556 21.3298 20.1288 21.457C19.8824 21.5531 19.5113 21.6668 18.8288 21.6978C18.091 21.7318 17.8693 21.7385 16 21.7385C14.1307 21.7385 13.9096 21.7318 13.172 21.6978ZM13.114 9.04239C12.3688 9.07633 11.8596 9.19449 11.4149 9.36753C10.9544 9.54622 10.5645 9.78596 10.1749 10.1749C9.78534 10.5639 9.54622 10.9544 9.36753 11.4149C9.19449 11.8599 9.07633 12.3688 9.04239 13.114C9.0079 13.8604 9 14.099 9 16C9 17.901 9.0079 18.1396 9.04239 18.886C9.07633 19.6312 9.19449 20.1401 9.36753 20.5851C9.54622 21.0453 9.7854 21.4363 10.1749 21.8251C10.5645 22.2139 10.9544 22.4533 11.4149 22.6325C11.8605 22.8055 12.3688 22.9237 13.114 22.9576C13.8608 22.9915 14.099 23 16 23C17.901 23 18.1396 22.9921 18.886 22.9576C19.6312 22.9237 20.1401 22.8055 20.5851 22.6325C21.0453 22.4533 21.4355 22.214 21.8251 21.8251C22.2147 21.4361 22.4533 21.0453 22.6325 20.5851C22.8055 20.1401 22.9242 19.6312 22.9576 18.886C22.9915 18.139 22.9994 17.901 22.9994 16C22.9994 14.099 22.9915 13.8604 22.9576 13.114C22.9237 12.3688 22.8055 11.8596 22.6325 11.4149C22.4533 10.9547 22.214 10.5645 21.8251 10.1749C21.4361 9.78534 21.0453 9.54622 20.5856 9.36753C20.1401 9.19449 19.6312 9.07577 18.8865 9.04239C18.1402 9.00846 17.9015 9 16.0006 9C14.0996 9 13.8608 9.0079 13.114 9.04239Z" fill="white"/>
</svg>
