<svg width="32" height="32" viewBox="0 0 32 32" fill="none" xmlns="http://www.w3.org/2000/svg">
<path d="M21.5784 10.3351C20.1081 8.82162 18.0757 8 16 8C11.5892 8 8.04324 11.5892 8.08649 15.9568C8.08649 17.3405 8.47568 18.6811 9.12432 19.8919L8 24L12.1946 22.9189C13.3622 23.5676 14.6595 23.8703 15.9568 23.8703C20.3243 23.8703 23.8703 20.2811 23.8703 15.9135C23.8703 13.7946 23.0486 11.8054 21.5784 10.3351ZM16 22.5297C14.8324 22.5297 13.6649 22.227 12.6703 21.6216L12.4108 21.4919L9.9027 22.1405L10.5514 19.6757L10.3784 19.4162C8.47568 16.3459 9.38378 12.2811 12.4973 10.3784C15.6108 8.47568 19.6324 9.38378 21.5351 12.4973C23.4378 15.6108 22.5297 19.6324 19.4162 21.5351C18.4216 22.1838 17.2108 22.5297 16 22.5297ZM19.8054 17.7297L19.3297 17.5135C19.3297 17.5135 18.6378 17.2108 18.2054 16.9946C18.1622 16.9946 18.1189 16.9514 18.0757 16.9514C17.9459 16.9514 17.8595 16.9946 17.773 17.0378C17.773 17.0378 17.7297 17.0811 17.1243 17.773C17.0811 17.8595 16.9946 17.9027 16.9081 17.9027H16.8649C16.8216 17.9027 16.7351 17.8595 16.6919 17.8162L16.4757 17.7297C16 17.5135 15.5676 17.2541 15.2216 16.9081C15.1351 16.8216 15.0054 16.7351 14.9189 16.6486C14.6162 16.3459 14.3135 16 14.0973 15.6108L14.0541 15.5243C14.0108 15.4811 14.0108 15.4378 13.9676 15.3514C13.9676 15.2649 13.9676 15.1784 14.0108 15.1351C14.0108 15.1351 14.1838 14.9189 14.3135 14.7892C14.4 14.7027 14.4432 14.573 14.5297 14.4865C14.6162 14.3568 14.6595 14.1838 14.6162 14.0541C14.573 13.8378 14.0541 12.6703 13.9243 12.4108C13.8378 12.2811 13.7514 12.2378 13.6216 12.1946H13.4919C13.4054 12.1946 13.2757 12.1946 13.1459 12.1946C13.0595 12.1946 12.973 12.2378 12.8865 12.2378L12.8432 12.2811C12.7568 12.3243 12.6703 12.4108 12.5838 12.4541C12.4973 12.5405 12.4541 12.627 12.3676 12.7135C12.0649 13.1027 11.8919 13.5784 11.8919 14.0541C11.8919 14.4 11.9784 14.7459 12.1081 15.0486L12.1514 15.1784C12.5405 16 13.0595 16.7351 13.7514 17.3838L13.9243 17.5568C14.0541 17.6865 14.1838 17.773 14.2703 17.9027C15.1784 18.6811 16.2162 19.2432 17.3838 19.5459C17.5135 19.5892 17.6865 19.5892 17.8162 19.6324C17.9459 19.6324 18.1189 19.6324 18.2486 19.6324C18.4649 19.6324 18.7243 19.5459 18.8973 19.4595C19.027 19.373 19.1135 19.373 19.2 19.2865L19.2865 19.2C19.373 19.1135 19.4595 19.0703 19.5459 18.9838C19.6324 18.8973 19.7189 18.8108 19.7622 18.7243C19.8486 18.5514 19.8919 18.3351 19.9351 18.1189C19.9351 18.0324 19.9351 17.9027 19.9351 17.8162C19.9351 17.8162 19.8919 17.773 19.8054 17.7297Z" fill="white"/>
</svg>
