<svg width="32" height="32" viewBox="0 0 32 32" fill="none" xmlns="http://www.w3.org/2000/svg">
<path fill-rule="evenodd" clip-rule="evenodd" d="M22.0024 10.3365C22.6753 10.5176 23.2059 11.0482 23.3871 11.7212C23.7235 12.9506 23.7106 15.5129 23.7106 15.5129C23.7106 15.5129 23.7106 18.0624 23.3871 19.2918C23.2059 19.9647 22.6753 20.4953 22.0024 20.6765C20.7729 21 15.8553 21 15.8553 21C15.8553 21 10.9506 21 9.70824 20.6635C9.03529 20.4824 8.50471 19.9518 8.32353 19.2788C8 18.0624 8 15.5 8 15.5C8 15.5 8 12.9506 8.32353 11.7212C8.50471 11.0482 9.04824 10.5047 9.70824 10.3235C10.9376 10 15.8553 10 15.8553 10C15.8553 10 20.7729 10 22.0024 10.3365ZM18.3788 15.5L14.2894 17.8553V13.1447L18.3788 15.5Z" fill="white"/>
</svg>
