<svg width="52" height="53" viewBox="0 0 52 53" fill="none" xmlns="http://www.w3.org/2000/svg">
<g opacity="0.65" clip-path="url(#clip0_159_348)">
<path opacity="0.927" fill-rule="evenodd" clip-rule="evenodd" d="M50.832 0.449219C51.069 0.449219 51.306 0.449219 51.543 0.449219C51.6745 0.5496 51.8099 0.651163 51.9492 0.753906C51.9492 1.05859 51.9492 1.36328 51.9492 1.66797C49.3445 4.2049 46.7717 6.77781 44.2305 9.38672C45.3831 10.5562 46.5173 11.7411 47.6328 12.9414C48.0629 13.7004 48.1984 14.5129 48.0391 15.3789C47.4486 19.5121 46.8392 23.6423 46.2109 27.7695C46.0756 28.0404 45.9401 28.3112 45.8047 28.582C44.3828 30.0039 42.9609 31.4258 41.5391 32.8477C41.4883 33.7611 41.4714 34.6752 41.4883 35.5898C44.0953 35.5729 46.702 35.5898 49.3086 35.6406C50.8083 36.1846 51.4345 37.251 51.1875 38.8398C50.2734 42.4284 49.3594 46.017 48.4453 49.6055C48.1567 50.7066 47.4627 51.4006 46.3633 51.6875C45.7539 51.7552 45.1445 51.7552 44.5352 51.6875C44.0478 51.3756 43.9293 50.9524 44.1797 50.418C44.2714 50.296 44.3898 50.2113 44.5352 50.1641C45.0768 50.1302 45.6185 50.0963 46.1602 50.0625C46.3759 49.9485 46.562 49.7962 46.7188 49.6055C47.6666 45.9492 48.6146 42.293 49.5625 38.6367C49.7512 38.0191 49.565 37.5621 49.0039 37.2656C46.0837 37.264 43.1722 37.1963 40.2695 37.0625C40.0677 36.9285 39.9492 36.7424 39.9141 36.5039C39.8802 34.2357 39.8463 31.9674 39.8125 29.6992C39.3836 29.0846 38.9097 29.0507 38.3906 29.5977C36.9287 32.6907 35.4391 35.7715 33.9219 38.8398C33.8373 41.8873 33.8541 44.9342 33.9727 47.9805C34.967 49.07 36.1857 49.764 37.6289 50.0625C38.7799 50.0963 39.931 50.1302 41.082 50.1641C41.2682 50.2148 41.3867 50.3334 41.4375 50.5195C41.5205 50.8713 41.4866 51.21 41.3359 51.5352C41.2598 51.5987 41.1751 51.6495 41.082 51.6875C39.6564 51.7755 38.2345 51.7415 36.8164 51.5859C35.5038 51.2514 34.3528 50.6251 33.3633 49.707C32.9379 50.1228 32.4301 50.3767 31.8398 50.4688C30.1471 50.5365 28.4545 50.5365 26.7617 50.4688C25.9893 50.4062 25.3968 50.0507 24.9844 49.4023C24.1211 50.2656 23.2578 51.1289 22.3945 51.9922C22.0805 52.1492 21.7758 52.3015 21.4805 52.4492C20.9727 52.4492 20.4648 52.4492 19.957 52.4492C19.5667 52.3218 19.1943 52.1356 18.8398 51.8906C12.7291 45.7799 6.61849 39.6693 0.507812 33.5586C0.291515 33.2268 0.105317 32.8883 -0.0507812 32.543C-0.0507812 32.0013 -0.0507812 31.4596 -0.0507812 30.918C0.0968967 30.6226 0.24924 30.3179 0.40625 30.0039C6.17838 24.2318 11.9506 18.4596 17.7227 12.6875C18.7871 12.3977 19.1764 12.7871 18.8906 13.8555C13.1693 19.5768 7.44791 25.2982 1.72656 31.0195C1.39717 31.5481 1.43103 32.0559 1.82812 32.543C7.83724 38.5521 13.8463 44.5612 19.8555 50.5703C20.3426 50.9674 20.8504 51.0012 21.3789 50.6719C22.4791 49.5716 23.5795 48.4713 24.6797 47.3711C24.7135 44.3242 24.7474 41.2773 24.7812 38.2305C25.0452 37.391 25.6038 36.8663 26.457 36.6562C28.319 36.5885 30.181 36.5885 32.043 36.6562C32.3602 36.7049 32.648 36.8234 32.9062 37.0117C34.3203 34.2175 35.7083 31.4076 37.0703 28.582C38.2764 27.3094 39.5628 27.2416 40.9297 28.3789C41.4146 29.0007 41.6178 29.7116 41.5391 30.5117C42.5209 29.5299 43.5026 28.5482 44.4844 27.5664C44.6614 27.2153 44.763 26.843 44.7891 26.4492C45.3524 22.5226 45.911 18.5955 46.4648 14.668C46.4671 14.4176 46.4163 14.1807 46.3125 13.957C45.1953 12.8398 44.0781 11.7227 42.9609 10.6055C42.3854 11.181 41.8099 11.7565 41.2344 12.332C41.2999 12.7043 41.4014 13.0766 41.5391 13.4492C41.8204 15.6708 40.8894 17.0758 38.7461 17.6641C35.7547 17.6857 34.4513 16.213 34.8359 13.2461C35.547 11.341 36.9181 10.5454 38.9492 10.8594C39.3218 10.997 39.6942 11.0986 40.0664 11.1641C40.642 10.5885 41.2174 10.013 41.793 9.4375C40.639 8.24957 39.4541 7.09854 38.2383 5.98438C37.8998 5.91666 37.5612 5.91666 37.2227 5.98438C33.2617 6.5599 29.3008 7.13541 25.3398 7.71094C25.1625 7.75876 24.9932 7.82648 24.832 7.91406C23.7119 9.06814 22.5608 10.1853 21.3789 11.2656C20.4991 11.3672 20.1436 10.9779 20.3125 10.0977C21.4805 8.92969 22.6484 7.76172 23.8164 6.59375C24.0195 6.49219 24.2227 6.39062 24.4258 6.28906C28.6469 5.58931 32.8786 4.94607 37.1211 4.35938C37.9515 4.21209 38.7301 4.3475 39.457 4.76562C40.6573 5.88123 41.8422 7.01535 43.0117 8.16797C45.6233 5.59014 48.2301 3.01723 50.832 0.449219ZM37.6289 12.4336C38.0029 12.4168 38.3752 12.4337 38.7461 12.4844C38.4881 12.7083 38.268 12.9622 38.0859 13.2461C37.9336 14.1094 38.2891 14.4648 39.1523 14.3125C39.4362 14.1304 39.6901 13.9103 39.9141 13.6523C40.1034 15.2911 39.3755 16.0866 37.7305 16.0391C36.3526 15.4608 35.9971 14.4959 36.6641 13.1445C36.9474 12.8434 37.2691 12.6065 37.6289 12.4336ZM26.7617 38.2305C28.4209 38.2135 30.0798 38.2305 31.7383 38.2812C31.8836 38.3285 32.002 38.4132 32.0938 38.5352C32.2607 41.779 32.2946 45.029 32.1953 48.2852C32.1549 48.5626 32.0025 48.7488 31.7383 48.8438C30.1133 48.9115 28.4883 48.9115 26.8633 48.8438C26.6248 48.8326 26.4725 48.7141 26.4062 48.4883C26.3385 45.1705 26.3385 41.8529 26.4062 38.5352C26.5225 38.4198 26.6411 38.3182 26.7617 38.2305Z" fill="white"/>
<path opacity="0.919" fill-rule="evenodd" clip-rule="evenodd" d="M27.9805 16.4961C28.7629 16.6397 29.0168 17.0798 28.7422 17.8164C23.4102 23.1484 18.0781 28.4805 12.7461 33.8125C12.0687 34.0832 11.6286 33.8632 11.4258 33.1523C11.4663 32.98 11.5171 32.8108 11.5781 32.6445C16.8763 27.3463 22.1744 22.0482 27.4727 16.75C27.657 16.6731 27.8262 16.5885 27.9805 16.4961Z" fill="white"/>
<path opacity="0.917" fill-rule="evenodd" clip-rule="evenodd" d="M27.5742 25.0273C28.4717 25.0602 28.7932 25.5003 28.539 26.3477C24.6627 30.224 20.7865 34.1002 16.9101 37.9766C15.8532 38.3392 15.4301 37.9838 15.6406 36.9102C19.6078 32.926 23.5856 28.965 27.5742 25.0273Z" fill="white"/>
<path opacity="0.868" fill-rule="evenodd" clip-rule="evenodd" d="M29.1992 40.1602C29.9675 40.2834 30.2215 40.7234 29.9609 41.4805C29.6655 41.7744 29.31 41.859 28.8945 41.7344C28.7084 41.6836 28.5899 41.5651 28.5391 41.3789C28.3694 40.7352 28.5893 40.329 29.1992 40.1602Z" fill="white"/>
</g>
<defs>
<clipPath id="clip0_159_348">
<rect width="52" height="52" fill="white" transform="translate(0 0.5)"/>
</clipPath>
</defs>
</svg>
