<svg width="52" height="53" viewBox="0 0 52 53" fill="none" xmlns="http://www.w3.org/2000/svg">
<g opacity="0.65" clip-path="url(#clip0_159_303)">
<path opacity="0.943" fill-rule="evenodd" clip-rule="evenodd" d="M25.543 0.449219C25.8138 0.449219 26.0846 0.449219 26.3555 0.449219C26.5561 0.565648 26.7084 0.734919 26.8125 0.957031C26.8295 2.54926 26.8802 4.14041 26.9648 5.73047C27.8158 5.98893 28.476 6.49675 28.9453 7.25391C30.5277 5.36108 32.1695 3.51602 33.8711 1.71875C34.1878 1.52649 34.5263 1.39107 34.8867 1.3125C39.8633 1.24479 44.8398 1.24479 49.8164 1.3125C50.8966 1.52998 51.6076 2.15627 51.9492 3.19141C51.9492 7.15234 51.9492 11.1133 51.9492 15.0742C51.5347 16.1307 50.7561 16.757 49.6133 16.9531C44.5996 17.0518 39.5892 17.0179 34.582 16.8516C33.9798 16.6564 33.4889 16.3009 33.1094 15.7852C31.7213 14.194 30.3334 12.6029 28.9453 11.0117C28.4145 11.7114 27.7374 12.2192 26.9141 12.5352C26.8295 14.0259 26.8464 15.5155 26.9648 17.0039C29.1571 17.9694 29.885 19.5944 29.1484 21.8789C28.6864 22.8486 27.9417 23.4919 26.9141 23.8086C26.8295 25.2993 26.8464 26.7889 26.9648 28.2773C27.8158 28.5358 28.476 29.0436 28.9453 29.8008C30.4688 28.0404 31.9922 26.2799 33.5156 24.5195C33.8923 24.2107 34.3155 23.9906 34.7852 23.8594C39.8295 23.7916 44.8737 23.7916 49.918 23.8594C50.9412 24.1212 51.6182 24.7474 51.9492 25.7383C51.9492 29.6992 51.9492 33.6602 51.9492 37.6211C51.5956 38.4655 50.9862 39.0579 50.1211 39.3984C44.9752 39.4662 39.8295 39.4662 34.6836 39.3984C34.0832 39.2422 33.5923 38.9206 33.2109 38.4336C31.7891 36.8086 30.3672 35.1836 28.9453 33.5586C28.4284 34.2962 27.7343 34.7702 26.8633 34.9805C26.8633 36.5039 26.8633 38.0273 26.8633 39.5508C28.4936 40.0652 29.3738 41.1824 29.5039 42.9023C29.4186 44.2544 28.8092 45.287 27.6758 46C27.4196 46.1362 27.1488 46.2208 26.8633 46.2539C26.8802 48.1501 26.8633 50.0458 26.8125 51.9414C26.7084 52.1635 26.5561 52.3328 26.3555 52.4492C26.0846 52.4492 25.8138 52.4492 25.543 52.4492C25.3424 52.3328 25.19 52.1635 25.0859 51.9414C25.0352 50.0458 25.0182 48.1501 25.0352 46.2539C24.1642 46.0437 23.4701 45.5697 22.9531 44.832C21.5312 46.457 20.1094 48.082 18.6875 49.707C18.2769 50.1516 17.786 50.4732 17.2148 50.6719C12.1029 50.7396 6.99088 50.7396 1.87891 50.6719C0.956349 50.3753 0.313119 49.7829 -0.0507812 48.8945C-0.0507812 44.9336 -0.0507812 40.9727 -0.0507812 37.0117C0.277586 36.0237 0.954668 35.3974 1.98047 35.1328C7.02474 35.0651 12.069 35.0651 17.1133 35.1328C17.6539 35.2422 18.1109 35.4961 18.4844 35.8945C19.9499 37.6401 21.4395 39.3666 22.9531 41.0742C23.4224 40.3171 24.0826 39.8093 24.9336 39.5508C25.0351 38.0289 25.069 36.5054 25.0352 34.9805C23.9771 34.747 23.2154 34.1376 22.75 33.1523C22.0853 31.4031 22.4747 29.9305 23.918 28.7344C24.2445 28.5542 24.583 28.4019 24.9336 28.2773C25.0351 26.7554 25.069 25.232 25.0352 23.707C24.1653 23.4984 23.4713 23.0244 22.9531 22.2852C21.3451 24.0963 19.7369 25.9076 18.1289 27.7188C17.6615 28.0099 17.1537 28.1792 16.6055 28.2266C11.8659 28.2943 7.12631 28.2943 2.38672 28.2266C1.20212 28.0736 0.389624 27.4474 -0.0507812 26.3477C-0.0507812 22.3867 -0.0507812 18.4258 -0.0507812 14.4648C0.279315 13.4749 0.956398 12.8487 1.98047 12.5859C6.99088 12.5182 12.0013 12.5182 17.0117 12.5859C17.3722 12.6645 17.7107 12.7999 18.0273 12.9922C19.7289 14.7894 21.3708 16.6345 22.9531 18.5273C23.4224 17.7702 24.0826 17.2624 24.9336 17.0039C25.052 15.5155 25.069 14.0259 24.9844 12.5352C22.8536 11.6591 22.075 10.1018 22.6484 7.86328C23.1007 6.81848 23.8624 6.10754 24.9336 5.73047C25.0182 4.14041 25.069 2.54926 25.0859 0.957031C25.19 0.734919 25.3424 0.565648 25.543 0.449219ZM35.1914 3.08984C40.0725 3.04052 44.9475 3.09131 49.8164 3.24219C49.9384 3.33385 50.0231 3.45234 50.0703 3.59766C50.1381 7.28776 50.1381 10.9779 50.0703 14.668C49.9041 14.9026 49.684 15.0549 49.4102 15.125C44.5982 15.2245 39.791 15.1907 34.9883 15.0234C33.2239 13.09 31.4974 11.1265 29.8086 9.13281C31.5545 7.06593 33.3487 5.05161 35.1914 3.08984ZM25.543 7.45703C26.7459 7.39051 27.4568 7.9491 27.6758 9.13281C27.4786 10.2782 26.8015 10.8199 25.6445 10.7578C24.3447 10.2749 23.9893 9.41166 24.5781 8.16797C24.835 7.82419 25.1566 7.58721 25.543 7.45703ZM2.28516 14.3633C7.09257 14.3463 11.8999 14.3633 16.707 14.4141C17.0929 14.6981 17.4483 15.0198 17.7734 15.3789C19.2123 17.0377 20.651 18.6966 22.0898 20.3555C20.4091 22.3116 18.7164 24.2582 17.0117 26.1953C16.8505 26.2829 16.6812 26.3506 16.5039 26.3984C11.7258 26.498 6.95239 26.4641 2.18359 26.2969C2.0651 26.1784 1.94662 26.0599 1.82812 25.9414C1.76041 22.2513 1.76041 18.5612 1.82812 14.8711C1.93223 14.649 2.08457 14.4797 2.28516 14.3633ZM25.4414 18.7305C26.6694 18.6039 27.4142 19.1456 27.6758 20.3555C27.5 21.5304 26.823 22.089 25.6445 22.0312C24.3437 21.5466 23.9883 20.6833 24.5781 19.4414C24.826 19.1414 25.1139 18.9044 25.4414 18.7305ZM35.1914 25.6367C40.0749 25.587 44.9499 25.6377 49.8164 25.7891C49.9384 25.8808 50.0231 25.9992 50.0703 26.1445C50.1381 29.8346 50.1381 33.5248 50.0703 37.2148C49.9518 37.3334 49.8334 37.4518 49.7148 37.5703C44.7637 37.6709 39.8209 37.637 34.8867 37.4688C33.182 35.5316 31.4894 33.585 29.8086 31.6289C31.2474 29.9701 32.6862 28.3112 34.125 26.6523C34.4725 26.2874 34.828 25.9489 35.1914 25.6367ZM25.4414 30.0039C26.672 29.8806 27.4168 30.4223 27.6758 31.6289C27.2996 33.1711 26.3855 33.6282 24.9336 33C23.9377 31.8182 24.1069 30.8196 25.4414 30.0039ZM2.28516 36.9102C7.12642 36.8932 11.9675 36.9102 16.8086 36.9609C18.5821 38.9211 20.3425 40.9016 22.0898 42.9023C20.3633 44.9198 18.6028 46.9002 16.8086 48.8438C11.9336 48.9115 7.05859 48.9115 2.18359 48.8438C2.0651 48.7252 1.94662 48.6068 1.82812 48.4883C1.76041 44.7982 1.76041 41.108 1.82812 37.418C1.93223 37.1959 2.08457 37.0265 2.28516 36.9102ZM25.4414 41.2773C26.675 41.1577 27.4197 41.6993 27.6758 42.9023C27.3002 44.4444 26.3861 44.9014 24.9336 44.2734C23.9391 43.087 24.1083 42.0883 25.4414 41.2773Z" fill="white"/>
<path opacity="0.899" fill-rule="evenodd" clip-rule="evenodd" d="M36.1055 6.44134C36.657 6.40691 37.1987 6.45769 37.7305 6.59369C38.2879 7.17546 38.2539 7.71712 37.6289 8.21869C37.0534 8.2864 36.4779 8.2864 35.9024 8.21869C35.221 7.53848 35.2886 6.94604 36.1055 6.44134Z" fill="white"/>
<path opacity="0.935" fill-rule="evenodd" clip-rule="evenodd" d="M40.4726 6.4414C42.9443 6.42448 45.4156 6.4414 47.8867 6.49218C48.4546 6.73618 48.6408 7.15936 48.4453 7.76172C48.3607 7.98177 48.2084 8.13412 47.9883 8.21875C45.4154 8.28646 42.8424 8.28646 40.2695 8.21875C39.7676 7.86675 39.6491 7.40972 39.9141 6.84765C40.0664 6.64771 40.2526 6.51229 40.4726 6.4414Z" fill="white"/>
<path opacity="0.936" fill-rule="evenodd" clip-rule="evenodd" d="M36.207 9.89453C38.6109 9.87761 41.0146 9.89453 43.4179 9.94531C44.3553 10.3666 44.4568 10.942 43.7226 11.6719C41.1158 11.7396 38.5091 11.7396 35.9023 11.6719C35.3683 11.2557 35.2837 10.7648 35.6484 10.1992C35.8389 10.0866 36.0251 9.98505 36.207 9.89453Z" fill="white"/>
<path opacity="0.901" fill-rule="evenodd" clip-rule="evenodd" d="M4.0117 17.7148C4.56609 17.6745 5.10775 17.7253 5.6367 17.8671C6.07221 18.2501 6.15684 18.7072 5.89061 19.2382C5.79895 19.3602 5.68045 19.4449 5.53514 19.4921C4.91436 19.5845 4.30498 19.5506 3.70701 19.3906C3.4208 19.0516 3.33616 18.6623 3.45311 18.2226C3.59038 17.9942 3.77657 17.8249 4.0117 17.7148Z" fill="white"/>
<path opacity="0.934" fill-rule="evenodd" clip-rule="evenodd" d="M8.37888 17.7149C10.8505 17.6979 13.3218 17.7149 15.7929 17.7656C16.2217 17.9086 16.4587 18.2133 16.5039 18.6797C16.455 19.0671 16.2519 19.3378 15.8945 19.4922C13.3216 19.5599 10.7486 19.5599 8.17576 19.4922C7.46685 18.7946 7.53455 18.2022 8.37888 17.7149Z" fill="white"/>
<path opacity="0.936" fill-rule="evenodd" clip-rule="evenodd" d="M4.11324 21.168C6.55098 21.151 8.98848 21.168 11.4257 21.2188C12.1261 21.501 12.3123 21.992 11.9843 22.6914C11.8926 22.8134 11.7742 22.8981 11.6289 22.9453C9.05595 23.0131 6.48303 23.0131 3.91012 22.9453C3.43735 22.6511 3.28501 22.228 3.45309 21.6758C3.6364 21.4396 3.85645 21.2704 4.11324 21.168Z" fill="white"/>
<path opacity="0.896" fill-rule="evenodd" clip-rule="evenodd" d="M36.1055 28.9882C36.6599 28.9479 37.2016 28.9987 37.7305 29.1406C38.2889 29.7177 38.2551 30.2593 37.629 30.7656C37.0082 30.8579 36.3988 30.8241 35.8008 30.664C35.2155 29.9758 35.3171 29.4172 36.1055 28.9882Z" fill="white"/>
<path opacity="0.934" fill-rule="evenodd" clip-rule="evenodd" d="M40.3711 28.9883C42.8765 28.9713 45.3817 28.9883 47.8867 29.0391C48.4549 29.2782 48.6411 29.7014 48.4453 30.3086C48.3607 30.5287 48.2083 30.681 47.9882 30.7656C45.4154 30.8334 42.8424 30.8334 40.2695 30.7656C39.5719 30.1282 39.6058 29.5358 40.3711 28.9883Z" fill="white"/>
<path opacity="0.934" fill-rule="evenodd" clip-rule="evenodd" d="M36.1055 32.4414C38.5771 32.4245 41.0484 32.4414 43.5196 32.4922C44.3734 32.965 44.4411 33.5405 43.7227 34.2188C41.1159 34.2865 38.5092 34.2865 35.9024 34.2188C35.221 33.5386 35.2886 32.9461 36.1055 32.4414Z" fill="white"/>
<path opacity="0.897" fill-rule="evenodd" clip-rule="evenodd" d="M4.0117 40.2616C4.60666 40.2095 5.18218 40.2773 5.73826 40.4647C6.08008 40.8638 6.13086 41.3039 5.89061 41.7851C5.79895 41.907 5.68045 41.9917 5.53514 42.039C4.91436 42.1313 4.30498 42.0975 3.70701 41.9374C3.4208 41.5984 3.33616 41.2091 3.45311 40.7694C3.56549 40.504 3.75169 40.3347 4.0117 40.2616Z" fill="white"/>
<path opacity="0.932" fill-rule="evenodd" clip-rule="evenodd" d="M8.27729 40.2617C10.8166 40.2448 13.3556 40.2617 15.8945 40.3125C16.707 40.8881 16.707 41.4635 15.8945 42.0391C13.3554 42.1068 10.8164 42.1068 8.27729 42.0391C7.473 41.4473 7.473 40.8549 8.27729 40.2617Z" fill="white"/>
<path opacity="0.934" fill-rule="evenodd" clip-rule="evenodd" d="M4.01178 43.7149C6.51721 43.6979 9.02242 43.7149 11.5274 43.7656C12.2983 44.2953 12.3321 44.8708 11.629 45.4922C9.05605 45.5599 6.48313 45.5599 3.91021 45.4922C3.54619 45.3232 3.37693 45.0355 3.4024 44.6289C3.38049 44.1629 3.58362 43.8582 4.01178 43.7149Z" fill="white"/>
</g>
<defs>
<clipPath id="clip0_159_303">
<rect width="52" height="52" fill="white" transform="translate(0 0.5)"/>
</clipPath>
</defs>
</svg>
