<svg width="52" height="53" viewBox="0 0 52 53" fill="none" xmlns="http://www.w3.org/2000/svg">
<g opacity="0.65">
<path opacity="0.943" fill-rule="evenodd" clip-rule="evenodd" d="M17.2148 1.87116C21.3952 1.59149 24.6112 3.19956 26.8633 6.69538C28.7611 6.83924 30.1661 7.73638 31.0781 9.38679C31.3264 9.53681 31.5465 9.723 31.7383 9.94538C35.9721 12.0116 39.5438 14.9061 42.4531 18.629C45.6294 22.7458 48.0669 27.2823 49.7656 32.2383C49.8503 32.8973 49.7827 33.5405 49.5625 34.168C48.4786 36.3013 46.8368 37.8417 44.6367 38.7891C41.6528 39.9424 38.7413 41.2627 35.9023 42.7501C30.9586 44.6322 25.9143 44.9369 20.7695 43.6641C19.4954 43.264 18.2429 42.8069 17.0117 42.293C16.8952 42.3253 16.8105 42.393 16.7578 42.4962C16.3802 43.9393 15.9401 45.3611 15.4375 46.7618C14.4278 48.6518 12.9551 50.0567 11.0195 50.9766C10.1578 51.1638 9.64992 50.8252 9.49609 49.961C9.5608 49.733 9.64543 49.5129 9.75 49.3008C11.4318 48.4993 12.7182 47.2806 13.6094 45.6446C14.0228 44.4041 14.3953 43.1514 14.7266 41.8868C15.285 40.4311 16.3175 39.9064 17.8242 40.3126C23.3926 42.8406 29.0463 43.0437 34.7852 40.9219C36.5242 40.1032 38.2508 39.2568 39.9648 38.3829C41.5677 37.7338 43.1589 37.0567 44.7383 36.3516C45.9867 35.5774 46.9515 34.5448 47.6328 33.254C47.7006 32.9493 47.7006 32.6446 47.6328 32.3399C45.8464 27.6476 43.4089 23.3482 40.3203 19.4415C37.5162 16.0611 34.1478 13.4036 30.2148 11.4688C29.5754 10.9317 29.0507 10.3053 28.6406 9.58991C28.4037 9.42064 28.1666 9.25138 27.9297 9.0821C28.0108 9.92381 28.0955 10.7702 28.1836 11.6212C28.1051 12.3734 28.0205 13.1182 27.9297 13.8555C28.7213 14.1161 29.3983 14.5562 29.9609 15.1758C31.0069 16.7211 31.7179 18.4138 32.0938 20.254C32.4152 22.1487 32.7199 24.0446 33.0078 25.9415C33.1885 26.5735 33.4254 27.1829 33.7188 27.7696C34.6124 28.677 35.3572 29.6926 35.9531 30.8165C35.9794 32.015 35.4208 32.4043 34.2773 31.9844C33.11 30.0884 31.6204 28.4972 29.8086 27.211C27.1561 25.7072 24.38 25.4363 21.4805 26.3985C19.6343 28.2615 17.5015 29.7003 15.082 30.7149C14.1102 30.5579 13.7885 30.0162 14.1172 29.0899C14.2357 28.9714 14.3541 28.853 14.4727 28.7344C15.7631 28.158 16.948 27.4301 18.0273 26.5508C16.8888 25.9477 15.7039 25.4568 14.4727 25.0782C11.1976 24.4129 8.15071 24.9883 5.33203 26.8048C4.85807 27.1433 4.38412 27.4819 3.91016 27.8204C3.00608 28.063 2.49826 27.7244 2.38672 26.8048C2.42831 26.569 2.51294 26.349 2.64062 26.1446C6.29903 23.1776 10.4462 22.1451 15.082 23.0469C16.2104 23.3741 17.2938 23.8142 18.332 24.3673C18.7408 24.5245 19.164 24.6091 19.6016 24.6212C20.7973 24.3469 21.999 24.093 23.207 23.8594C25.8714 23.4824 28.3597 23.9733 30.6719 25.3321C30.5623 23.0844 30.156 20.8839 29.4531 18.7305C29.1681 18.0251 28.8296 17.3481 28.4375 16.6993C28.1742 16.368 27.8526 16.1141 27.4727 15.9376C27.326 15.8582 27.1906 15.8752 27.0664 15.9883C24.4864 20.375 20.6947 22.0169 15.6914 20.9141C11.6745 19.5372 9.35546 16.7443 8.73438 12.5352C8.52881 7.83723 10.5431 4.5026 14.7773 2.53132C15.5861 2.24476 16.3986 2.02471 17.2148 1.87116ZM18.1289 3.90241C22.9231 4.24485 25.5637 6.80083 26.0508 11.5704C25.6042 16.198 23.0651 18.754 18.4336 19.2383C14.2864 18.8997 11.7643 16.6992 10.8672 12.6368C10.5918 8.47946 12.403 5.68649 16.3008 4.25788C16.9184 4.1058 17.5278 3.98731 18.1289 3.90241ZM17.7227 7.96491C20.2462 7.84846 21.7019 9.03335 22.0898 11.5196C21.6636 14.272 20.0724 15.44 17.3164 15.0235C14.845 13.8046 14.2186 11.9595 15.4375 9.48835C16.0514 8.73456 16.8132 8.22675 17.7227 7.96491Z" fill="white"/>
<path opacity="0.93" fill-rule="evenodd" clip-rule="evenodd" d="M41.9962 27.3632C42.5001 27.3451 42.8894 27.5482 43.1641 27.9725C44.7439 30.6528 44.3885 33.0395 42.0977 35.1327C41.4379 35.6491 40.7269 36.0892 39.9649 36.453C38.7567 36.5649 38.3336 36.0403 38.6954 34.8788C39.3129 34.4431 39.9392 34.0199 40.5743 33.6093C41.2307 33.1231 41.6877 32.4967 41.9454 31.7304C42.0131 31.2903 42.0131 30.8501 41.9454 30.41C41.6954 29.7249 41.4077 29.0647 41.0821 28.4296C41.1592 27.8627 41.4639 27.5072 41.9962 27.3632Z" fill="white"/>
<path opacity="0.937" fill-rule="evenodd" clip-rule="evenodd" d="M11.0195 33.2539C12.0553 33.3576 12.4108 33.8993 12.0859 34.8789C10.048 36.1034 8.25369 37.6269 6.70308 39.4492C5.10051 41.6155 4.2203 44.053 4.06246 46.7617C3.58117 47.3286 3.02258 47.4132 2.38668 47.0156C2.15411 46.7363 2.05255 46.4148 2.08199 46.0508C2.41002 41.7891 4.20429 38.2852 7.4648 35.5391C8.55615 34.6216 9.74104 33.8599 11.0195 33.2539Z" fill="white"/>
<path opacity="0.935" fill-rule="evenodd" clip-rule="evenodd" d="M22.3945 33.6602C23.106 33.6 23.7831 33.7185 24.4257 34.0157C24.7659 34.4705 24.8166 34.9615 24.5781 35.4884C24.1055 35.9059 23.5639 36.0075 22.9531 35.7931C22.6899 35.7997 22.436 35.8504 22.1913 35.9454C21.4113 36.403 20.6666 36.9108 19.957 37.4688C17.9806 38.6264 15.9155 38.8296 13.7617 38.0782C13.0844 37.7565 12.8305 37.2317 12.9999 36.504C13.3328 35.9343 13.8236 35.7482 14.4726 35.9454C14.6984 36.1712 14.9691 36.3066 15.2851 36.3516C16.5573 36.5499 17.7422 36.3128 18.8398 35.6407C19.3814 35.2345 19.9232 34.8282 20.4648 34.422C21.0847 34.0749 21.7279 33.821 22.3945 33.6602Z" fill="white"/>
</g>
</svg>
